<?xml version="1.0" encoding="UTF-8"?>
<svg id="Livello_1" data-name="Livello 1" xmlns="http://www.w3.org/2000/svg" viewBox="0 0 383.22 328.43">
  <defs>
    <style>
      .cls-1 {
        fill: #fff;
      }
    </style>
  </defs>
  <path class="cls-1" d="M376.35,145.06c-5.24-.09-10.48-.03-15.72-.02-2.49,0-5-.09-7.48,.05-3.89,.22-6.03,2.38-5.94,5.77,.09,3.26,2.17,5.18,5.92,5.38,1.62,.08,3.24,.03,4.86,.03,4.56,0,9.13,0,14.59,0-1.55,9.27-3.08,17.82-4.36,26.41-.55,3.64-2.2,4.66-5.9,4.66-112.9-.11-225.8-.09-338.69-.09-7.4,0-7.66,.05-9.04-7.09-1.5-7.75-2.46-15.59-3.73-23.89h6.16c102.04,0,204.09,0,306.13,0,1.5,0,3,.05,4.49-.08,3.23-.29,5.08-2.26,5.16-5.36,.08-3.11-1.69-5.3-4.89-5.59-3.34-.3-6.73-.17-10.09-.19-3.8-.02-7.59,0-11.98,0,3.09-4.8,5.91-8.87,8.42-13.12,14.62-24.82,20.95-51.52,17.97-80.29-.66-6.32-3.17-8.1-9.22-6.51-8.07,2.13-16.12,4.32-24.18,6.46-5.62,1.5-11.24,2.97-17.35,4.58,1.23-3.98,2.35-7.37,3.32-10.8,1.34-4.69-.03-7.14-4.64-8.46-3.23-.93-6.49-1.77-9.73-2.64-14.8-3.96-29.6-7.88-44.39-11.88-3.14-.85-6-.96-7.92,2.17-2.09,3.41-.18,7.25,4.29,8.48,8.65,2.37,17.33,4.62,25.99,6.94,8.02,2.15,16.03,4.33,24.48,6.62-1.43,3.74-2.86,7.03-3.93,10.44-.74,2.36-2.26,3.24-4.48,3.83-34.29,9.14-68.58,18.31-102.84,27.59-2.6,.7-3.97,.17-5.39-2.09-8.4-13.31-12.43-27.93-13.22-43.5-.51-10.08,.06-20.11,2.63-30.24,1.45,.35,2.65,.61,3.83,.92,15.41,4.09,30.81,8.2,46.22,12.28,4.06,1.07,6.98-.22,7.91-3.36,1.03-3.46-.73-6.19-4.94-7.34-18.15-4.93-36.3-9.83-54.47-14.67-4.97-1.32-7.43,.33-8.63,5.48-.61,2.61-1.21,5.22-1.82,7.82-.98-.08-1.48-.09-1.96-.17-15.81-2.68-29.87,6.73-33.3,22.3-3.23,14.66,6.11,29.26,21.32,33.34,5.17,1.39,10.36,2.72,15.49,4.25,1.16,.35,2.57,1.2,3.08,2.21,2.73,5.43,5.21,10.98,7.89,16.73-2.43,.68-5.04,1.43-7.67,2.13-8.54,2.28-17.09,4.52-25.63,6.83-3.94,1.07-5.84,3.78-5.08,7,.79,3.35,3.93,4.84,8.06,3.82,.48-.12,.96-.27,1.44-.4,61.1-16.37,122.21-32.75,183.31-49.12,6.8-1.82,13.61-3.6,20.77-5.49,.13,2.47,.32,4.44,.32,6.41,.11,29.2-9.67,54.89-27.52,77.76-2.12,2.71-4.3,3.78-7.8,3.77-60.13-.12-120.26-.08-180.39-.08-9.23,0-18.46,.04-27.69-.04-1.27-.01-3.16-.16-3.71-.96-3.89-5.67-7.5-11.53-11.43-17.7,9.27-2.5,17.58-4.69,25.85-6.97,3.95-1.09,5.86-3.83,5.08-6.98-.85-3.4-3.87-4.86-8.03-3.77-9.76,2.56-19.5,5.18-29.25,7.76-6.58,1.74-8.01,4.43-5.12,10.58,2.79,5.94,5.94,11.7,9.21,18.09h-4.21c-16.09,0-32.19,.06-48.28-.05-3.43-.02-6.35,.61-8.49,3.46v11.98c.22,1.08,.53,2.15,.63,3.23,2.84,31.14,14.83,58.48,34.51,82.54,19.33,23.64,43.47,40.9,71.49,52.79,2.99,1.27,4.16,2.76,3.96,6.04-.31,4.97-.09,9.97-.08,14.96,.01,7.02,1.36,8.43,8.24,8.43,48.65,0,97.3,0,145.96,0,6.49,0,8.01-1.52,8.03-7.88,.02-5.36,.17-10.74-.06-16.09-.12-2.82,.88-4.07,3.48-5.18,25.94-11.05,48.76-26.61,67.48-47.82,25.01-28.32,38.88-61.16,39.58-99.2,.09-5.09-1.85-7.1-6.87-7.19ZM121.21,57.91c-9.31-3-14.19-12.52-11.27-21.72,2.94-9.25,12.09-13.81,21.3-10.97,.65,12,1.29,23.84,1.94,36-3.85-1.05-7.97-2.02-11.98-3.32Zm140.11,259H122.01v-14.03h139.31v14.03Zm53.76-53.69c-14.3,11.47-30.03,20.47-47.02,27.29-1.45,.58-3.14,.81-4.71,.82-47.76,.04-95.53,.05-143.29-.02-2.03,0-4.17-.59-6.08-1.36-17.47-7.01-33.46-16.51-48.82-29.24h251.84c.26,.29,.53,.58,.79,.87-.9,.54-1.89,.99-2.7,1.64Zm16.38-15.22c-.98,1.01-3.15,1.2-4.78,1.2-58.13,.06-116.26,.05-174.39,.05-31.81,0-63.62-.04-95.43,.07-3.04,.01-5.17-.84-7.05-3.18-3.1-3.87-6.41-7.56-9.82-11.54,6.02-3.66,11.6-7.11,17.24-10.46,3.89-2.31,7.87-2.17,11.72,.1,3.86,2.28,7.71,4.6,11.44,7.08,9.79,6.51,19.53,6.62,29.34,.08,3.11-2.07,6.39-3.89,9.48-5.99,5.34-3.64,10.59-3.81,15.98-.11,2.98,2.04,6.18,3.76,9.16,5.79,9.98,6.79,19.92,6.91,29.98,.15,3.51-2.36,7.19-4.48,10.79-6.71,4.35-2.7,8.7-2.65,13.03,.03,4.03,2.49,8.07,4.96,12.08,7.48,9.04,5.68,18.05,5.67,27.08-.02,4.11-2.59,8.25-5.14,12.41-7.66,4.11-2.48,8.28-2.48,12.39,0,4.16,2.51,8.29,5.07,12.4,7.66,9.03,5.68,18.04,5.72,27.08,.02,3.79-2.39,7.64-4.7,11.42-7.13,4.8-3.09,9.53-3.12,14.37-.05,5.05,3.2,10.17,6.28,15.89,9.81-4.05,4.64-7.76,9.16-11.82,13.34Zm27.86-40.53c-2.91,5.77-5.98,11.45-9.24,17.64-2.89-1.54-5.42-2.77-7.84-4.19-3.65-2.14-7.16-4.53-10.85-6.6-7.31-4.1-14.77-4.18-22.1-.08-4.45,2.49-8.84,5.13-13.08,7.97-5.54,3.7-10.85,3.64-16.34-.08-3.71-2.51-7.58-4.79-11.42-7.11-8.36-5.06-16.75-4.98-25.1,.04-4.27,2.57-8.5,5.2-12.73,7.84-4.59,2.86-9.14,2.85-13.71-.03-4.01-2.52-8.06-4.98-12.07-7.48-8.81-5.5-17.61-5.46-26.42,0-4.13,2.56-8.26,5.13-12.4,7.66-4.34,2.66-8.72,2.68-13.06,.01-3.82-2.35-7.66-4.67-11.42-7.12-9.62-6.28-19.15-6.13-28.7,.16-3.33,2.19-6.78,4.2-10.11,6.39-5.02,3.28-9.97,3.38-15.03,.06-3.43-2.26-6.99-4.33-10.43-6.58-9.61-6.28-19.12-6.14-28.71,.1-4.78,3.11-9.7,5.98-15.37,9.46-4.71-9.34-9.01-17.85-13.56-26.87H363.14c-1.35,3.16-2.43,6.06-3.81,8.81Zm-269.65,8.46c-1.36-1.39-2.62-3.97-2.24-5.65,.38-1.68,2.64-3.34,4.46-4.16,1.56-.7,3.67-.28,5.53-.2,3.53,.15,5.82,2.34,5.85,5.46,.03,2.96-2.08,5.23-5.36,5.65-.98,.13-1.99,.02-2.98,.02-.03,.14-.07,.28-.1,.42-1.77-.47-4.07-.43-5.17-1.56Zm190.31-4.77c.15-2.95,2.39-5.03,5.71-5.24,.87-.06,1.74,0,2.61,0v.06c1,0,2-.1,2.98,.02,3.05,.36,4.74,2.29,4.93,5.19,.17,2.76-1.27,4.94-4.06,5.5-2.28,.45-4.71,.51-7.03,.29-3.26-.31-5.3-2.83-5.14-5.8Zm-128.66,0c.16-2.93,2.44-5.04,5.73-5.25,.87-.06,1.74,0,2.61,0,0-.02,0-.04,0-.06,1.12,.05,2.26-.02,3.35,.18,2.82,.51,4.81,2.45,4.42,5.1-.29,1.96-1.91,4.46-3.63,5.3-2.05,.99-4.87,.73-7.31,.52-3.22-.27-5.34-2.89-5.18-5.79Zm64.38,.07c.15-2.93,1.82-4.89,4.85-5.23,1.72-.2,3.48-.15,5.22-.09,3.75,.12,6.2,2.36,6.19,5.55-.02,3.04-2.34,5.28-5.86,5.61-.74,.07-1.49,.01-2.24,.01,0,.05-.01,.11-.02,.16-1.35-.16-2.75-.17-4.05-.51-2.76-.73-4.24-2.7-4.1-5.49Zm-15.91,24.88c.01,3.06-2.3,5.34-5.79,5.66-.86,.08-1.74,.01-2.61,.01,0,.06-.02,.12-.02,.18-1.35-.2-2.75-.21-4.02-.62-2.7-.88-4.08-2.94-3.79-5.72,.28-2.74,1.93-4.6,4.79-4.91,1.85-.2,3.74-.18,5.6-.09,3.5,.17,5.85,2.43,5.86,5.49Zm-128.87-.45c-.24,1.98-1.8,4.87-3.4,5.37-2.79,.88-6.26,.88-9.05,0-1.61-.52-3.23-3.41-3.43-5.38-.26-2.62,1.73-4.57,4.61-4.94,1.1-.14,2.23-.02,3.35-.02s2.26-.14,3.35,.03c2.83,.42,4.88,2.26,4.56,4.95Zm257.3,.11c-.24,1.96-1.9,4.75-3.55,5.31-2.65,.9-5.89,.67-8.75,.16-2.75-.49-4.01-2.9-3.71-5.68,.31-2.76,1.97-4.52,4.82-4.87,1.1-.13,2.23-.02,3.35-.02,0-.04,0-.09,0-.13,1.12,.05,2.25,0,3.35,.18,2.87,.45,4.8,2.45,4.48,5.05Zm-192.81-.07c.37,2.93-1.77,5.44-4.96,5.97-1.1,.18-2.23,.12-3.97,.2-.75-.11-2.15-.12-3.43-.52-2.71-.86-4.1-2.93-3.83-5.69,.26-2.73,1.88-4.64,4.76-4.94,1.97-.21,3.98-.16,5.97-.08,3.21,.13,5.06,1.95,5.46,5.06Zm128.7,.39c.02,3.02-2.34,5.35-5.79,5.67-.86,.08-1.74,.01-2.61,.01,0,.06-.01,.12-.02,.18-1.35-.19-2.75-.21-4.03-.62-2.7-.87-4.07-2.92-3.79-5.71,.27-2.76,1.92-4.6,4.77-4.92,1.85-.21,3.73-.18,5.6-.09,3.5,.17,5.86,2.42,5.88,5.47Z"/>
</svg>