<?xml version="1.0" encoding="UTF-8"?>
<svg id="Livello_1" data-name="Livello 1" xmlns="http://www.w3.org/2000/svg" viewBox="0 0 355.89 95.38">
  <defs>
    <style>
      .cls-1 {
        fill: #eee4d7;
      }

      .cls-2 {
        fill: #eee4d8;
      }

      .cls-3 {
        fill: #ebe3d6;
      }

      .cls-4 {
        fill: #ece3d7;
      }

      .cls-5 {
        fill: #ede4d8;
      }

      .cls-6 {
        fill: #ede4d7;
      }

      .cls-7 {
        fill: #ede4d6;
      }

      .cls-8 {
        fill: #efe5d9;
      }

      .cls-9 {
        fill: #efe4d9;
      }

      .cls-10 {
        fill: #859b9d;
      }

      .cls-11 {
        fill: #8ba3a4;
      }

      .cls-12 {
        fill: #132f38;
      }

      .cls-13 {
        fill: #122e35;
      }

      .cls-14 {
        fill: #112d39;
      }

      .cls-15 {
        fill: #132d36;
      }

      .cls-16 {
        fill: #1d2c2d;
      }

      .cls-17 {
        fill: #425f6a;
      }

      .cls-18 {
        fill: #89a2a1;
      }

      .cls-19 {
        fill: #879fa2;
      }

      .cls-20 {
        fill: #879fa0;
      }

      .cls-21 {
        fill: #88a1a2;
      }

      .cls-22 {
        fill: #38545c;
      }

      .cls-23 {
        fill: #58747d;
      }
    </style>
  </defs>
  <g>
    <path class="cls-15" d="M71.96,88.2c-2.29,1.18-4.52,2.51-6.89,3.51-6.81,2.88-13.94,4.2-21.32,3.48-16.58-1.62-29.11-9.79-37.54-24.05C1.02,62.36-.85,52.73,.35,42.59c1.07-9.14,4.49-17.35,10.25-24.55C17.79,9.05,27.06,3.35,38.29,.99c11.92-2.5,23.03-.22,33.33,6.2,8.56,5.34,14.79,12.68,18.8,21.92,3.59,8.26,4.68,16.86,3.4,25.77-.21,1.43-.53,2.84-.8,4.26-.45,1.37-.89,2.73-1.35,4.1-2.08,6.21-5.55,11.6-9.83,16.5-2.24,2.57-4.79,4.8-7.52,6.84l.04,.03s-.04-.04-.04-.04c-.16,.11-.31,.23-.47,.34,0,0,0,0,0,0-.64,.43-1.27,.86-1.91,1.29Zm19.25-32.88c.24-2.19,.6-4.36,.69-6.56,.19-4.49-.61-8.88-1.79-13.18-1.07-3.87-2.72-7.53-4.8-10.98-4.32-7.16-10.2-12.7-17.52-16.73-6.39-3.52-13.23-5.35-20.51-5.38-5.62-.03-11.03,1.15-16.24,3.29-8.21,3.39-14.95,8.67-20.04,15.92C4.34,31.19,1.45,41.74,2.83,53.34c.65,5.48,2.31,10.66,4.91,15.51,4.51,8.43,11.13,14.76,19.61,19.14,7.73,3.98,15.94,5.56,24.58,4.61,6.06-.67,11.79-2.5,17.08-5.58,3.29-1.92,6.38-4.1,9.03-6.87,.1-.08,.21-.16,.3-.25,3.51-3.41,6.33-7.33,8.59-11.67,2.12-4.08,3.62-8.36,4.28-12.92Z"/>
    <path class="cls-21" d="M78.04,80.15c-2.64,2.77-5.73,4.95-9.03,6.87-5.29,3.08-11.02,4.92-17.08,5.58-8.64,.95-16.85-.63-24.58-4.61-8.49-4.37-15.1-10.7-19.61-19.14-2.6-4.85-4.26-10.03-4.91-15.51-1.38-11.6,1.5-22.15,8.17-31.63,5.09-7.25,11.82-12.53,20.04-15.92,5.21-2.15,10.62-3.32,16.24-3.29,7.28,.04,14.12,1.86,20.51,5.38,7.32,4.03,13.2,9.56,17.52,16.73,2.08,3.45,3.73,7.1,4.8,10.98,1.19,4.3,1.99,8.69,1.79,13.18-.09,2.19-.45,4.37-.69,6.56-.32-.13-.64-.26-1-.41-.04,.09-.12,.18-.1,.26,.1,.64,.28,1.22-.45,1.73-.41,.28-.72,.9-.82,1.42-.14,.73-1.1,1.1-.83,1.99,.02,.06-.36,.23-.55,.35,.05-.2,.08-.41,.14-.61,1.05-3.57,1.65-7.21,1.76-10.92,.05-1.83-.04-3.69-.29-5.5-.35-2.53-.72-5.1-1.43-7.55-2.78-9.49-8.32-17.09-16.29-22.9-6.85-5-14.54-7.74-23.02-8.02-8.14-.27-15.63,2.05-22.55,6.23-5.12,3.09-9.35,7.16-12.81,12.05-4.69,6.62-7.33,13.97-7.87,22.05-.35,5.24,.33,10.37,1.95,15.37,2.52,7.78,7,14.27,13.31,19.44,8.62,7.07,18.48,10.61,29.72,9.85,6.73-.46,12.97-2.51,18.7-6.03,1.88-1.15,3.61-2.55,5.41-3.84-.17,1.2-1.09,1.69-2.08,2.11,.73-.03,1.41-.15,2.09-.16,.52,0,.67-.19,.67-.7,0-1.16,.1-1.2,1.13-.67,.09,.04,.19,.05,.33,.07,.34-.79,1.03-.8,1.73-.77Zm12.09-26.27c.1,.01,.2,.03,.3,.04,.24-1.06,.52-2.1,.7-3.17,.06-.37,.28-.98-.65-1.15-.12,1.47-.24,2.88-.35,4.29Zm.48-9.56l-.31,.02c-.13,.47-.31,.94-.37,1.43-.02,.19,.22,.42,.34,.63,.12-.08,.34-.15,.35-.24,.02-.61,0-1.22,0-1.84Zm-1.26-6.8c.07,0,.15-.02,.22-.03,0-.52,.03-1.04-.02-1.55-.02-.19-.2-.38-.34-.53-.03-.03-.31,.07-.32,.13-.03,.21-.02,.44,.02,.65,.06,.33,.15,.66,.24,.98,.04,.12,.12,.23,.19,.35Zm-.04,.87v1.63c.52-.53,1.05-1.03,.41-1.77-.17,.06-.34,.11-.41,.13Zm1.85,9.41c-.08,0-.16,.02-.23,.02v.91c.08,0,.16,0,.23,0v-.93Zm-2.1,7.58s-.06,.09-.05,.11c.01,.03,.07,.04,.11,.05,.02-.04,.06-.09,.05-.11-.01-.03-.07-.04-.11-.05Z"/>
    <path class="cls-20" d="M87.45,60.66c.19-.12,.56-.3,.55-.35-.27-.89,.69-1.26,.83-1.99,.1-.52,.41-1.13,.82-1.42,.74-.51,.55-1.09,.45-1.73-.01-.08,.07-.18,.1-.26,.36,.15,.68,.28,1,.41-.67,4.56-2.16,8.84-4.28,12.92-2.26,4.33-5.08,8.26-8.59,11.67-.09,.09-.2,.17-.3,.25-.7-.04-1.38-.03-1.73,.77-.13-.03-.24-.03-.33-.07-1.03-.53-1.12-.49-1.13,.67,0,.5-.15,.69-.67,.7-.68,.01-1.36,.13-2.09,.16,1-.42,1.91-.91,2.08-2.11,0,0,.01,.01,.01,.01,.11-.1,.23-.21,.34-.31l.59-.55c.1,.04,.25,.15,.3,.12,.7-.51,1.38-1.06,2.09-1.56,.46-.33,.56-.64,.11-1.04,.58-.65,1.16-1.28,1.72-1.95,3.6-4.27,6.27-9.07,8.12-14.33Z"/>
    <path class="cls-13" d="M75.12,79.42c-.2,.18-.39,.36-.59,.55-.11,.1-.23,.21-.34,.31,0,0-.01-.01-.01-.01-1.8,1.29-3.53,2.69-5.41,3.84-5.74,3.52-11.97,5.57-18.7,6.03-11.24,.76-21.1-2.78-29.72-9.85-6.3-5.17-10.79-11.66-13.31-19.44-1.62-4.99-2.3-10.13-1.95-15.37,.55-8.08,3.19-15.43,7.87-22.05,3.46-4.89,7.69-8.96,12.81-12.05,6.92-4.18,14.41-6.5,22.55-6.23,8.48,.29,16.17,3.02,23.02,8.02,7.97,5.81,13.51,13.41,16.29,22.9,.72,2.45,1.08,5.01,1.43,7.55,.25,1.81,.35,3.67,.29,5.5-.11,3.71-.71,7.36-1.76,10.92-.06,.2-.1,.41-.14,.61-1.85,5.26-4.52,10.06-8.12,14.33-.56,.66-1.15,1.3-1.72,1.95-.83,.83-1.66,1.65-2.49,2.48Zm-16.75-.67l.05-.05c-.06-.07-.12-.15-.19-.22-.03,.03-.06,.06-.09,.09,.07,.06,.15,.12,.25,.16,.05,.23,.09,.47,.14,.7-.41-.35-.83-.7-1.32-1.12-.5,3.55-2.27,6.41-4.59,9.04,2.37,.12,10.23-2.39,12.29-3.92-.24-.11-.45-.19-.65-.29-1.23-.6-2.5-1.13-3.66-1.85-.77-.48-1.38-1.23-2.06-1.85,.21-.23,.43-.46,.64-.69-.05-.05-.09-.1-.14-.15-.22,.04-.43,.09-.67,.16ZM42.79,10.57l-.04-.02,.03,.03c-.77,.26-1.34,1.11-1.3,1.93l-.03,.05c-1,.23-1.01,.99-.94,1.78-.05,.1-.09,.19-.14,.29-.05,.11-.1,.23-.16,.34,0,0,0,0,0,0-.26,.37-.57,.71-.75,1.12-.16,.35-.19,.77-.26,1.16-.11,.55-.2,1.09-.3,1.64-.18,.25-.35,.5-.65,.92-.21-.54-.46-.97-.52-1.42-.11-.84-.34-1.4-1.35-.87v-1.03c.18,.21,.36,.43,.5,.59,.64-1.59,1.14-3.23,1.94-4.72,.8-1.51,1.89-2.87,2.85-4.27-3.1,.1-10.72,2.79-11.76,3.89,1.27,.71,2.56,1.42,3.84,2.13-.38,.06-.75,.11-1.28,.19,.24,.25,.5,.71,.68,.69,.34-.06,.63-.39,.94-.62,.73,.66,1.46,1.31,2.18,1.97-.18,.2-.36,.41-.62,.71-.19-.42-.34-.76-.56-1.25-.22,.42-.36,.7-.51,.98l-.27-.25c.31-.72,.28-.81-.39-1.03,.02,.26,.04,.51,.06,.75-1.9-1.08-3.79-2.16-5.7-3.23-.16-.09-.44-.16-.57-.09-1.34,.84-2.66,1.72-4.18,2.7,.97,.1,1.67,.15,2.37,.25,3.94,.54,7.38,2.07,10.01,5.15-.11,.17-.2,.36-.33,.52-.43,.52-.42,1.05,.17,1.26,.67,.24,.61,.66,.62,1.09,.42,.39,.92,.81,1.03,1.31,.38,1.64,.57,3.32,.94,4.96,.08,.37,.1,1.01,.77,1.1,.1,.01,.19,.32,.24,.5,.06,.22-.01,.53,.12,.68,.45,.52,.65,1.06,.39,1.74-.05,.13,.07,.34,.13,.51,.15,.39,.31,.79,.48,1.17,.09,.2,.21,.39,.34,.56,.49,.65,1.24,1.14,1.23,2.08,0,.48,0,.96,0,1.51,.24-.07,.45-.08,.48-.15,.11-.35,.18-.72,.3-1.26,.18,.22,.37,.35,.38,.48,.1,1.08,.16,2.16,.25,3.24,.02,.21,.12,.4,.18,.61,0,0,0,0,0,0,.1,.01,.2,.02,.3,.04,0-.42-.02-.84,0-1.26,.01-.18,.11-.35,.15-.45,.28,.82,.54,1.63,.81,2.43,.09-.03,.18-.06,.27-.09-.09-.36-.27-.73-.26-1.08,.04-.7-.16-1.26-.6-1.79-.43-.52-.53-1.12-.22-1.75,.66,1.42,1.31,2.85,1.99,4.33,0-4.11,0-8.11,0-12.12,0-2.1-.25-4.17-1.14-6.09-.66-1.43-1.5-2.78-2.16-4.21-.42-.9-.74-1.86-.95-2.83-.22-.98,.12-1.74,.63-1.85,.57-.13,1.01,.3,1.39,1.36,.19,.52,.38,1.04,.63,1.74,.13-.56,.2-.89,.27-1.22,.04,0,.08,0,.13,0-.27,1.7,.72,2.95,1.59,4.27V10.78c-.31,.25-.47,.37-.62,.5,.17-1.33,.33-2.66,.5-3.98-.06-.04-.13-.08-.19-.12-.54,.42-1.08,.85-1.62,1.27-.49-.05-.66,.19-.6,.64-.05,.05-.1,.11-.15,.16-.76-.08-1.14,.41-1.04,1.33Zm16.39,62.77c.2,.05,.45,.03,.58,.15,.68,.58,1.27,1.28,2.01,1.77,1.1,.74,2.18,1.63,3.65,1.54,2.5,.79,5.06,1.08,7.73,.93-.07-.15-.08-.23-.12-.28-2.56-2.62-5.1-5.25-7.69-7.85-2.38-2.39-4.85-4.69-6.41-7.76-1.18-2.31-2.64-4.45-4.42-6.34-1.01-1.07-2.14-2.02-3.21-3.02-.06,.05-.13,.1-.19,.16,0,.12-.02,.26,.02,.37,.74,1.63,1.51,3.25,2.22,4.89,.52,1.22,.95,2.47,1.42,3.71-.2-.15-.48-.26-.59-.46-.29-.51-.52-1.05-.76-1.59-.3-.68-.62-1.36-.88-2.06-.25-.68-.44-1.38-.65-2.07-.06,.01-.11,.02-.17,.03-.09,.36-.18,.71-.27,1.07-.08,0-.16,.02-.25,.03-.09-.29-.15-.59-.27-.87-.06-.14-.2-.25-.31-.37-.1,.13-.31,.27-.29,.37,.06,.33,.17,.66,.32,.97,.08,.18,.38,.32,.38,.48-.04,1.2,.92,1.99,1.24,3.05,.22,.74,.34,1.61,.7,2.17,.51,.79,.51,1.65,.82,2.44,.22,.56,.32,1.18,.47,1.77,.16-.38,.16-.73,.16-1.09,0-.67-.24-1.5,1-1.41-.23-.49-.45-.85-.55-1.24-.1-.39-.08-.82-.11-1.23,.63,1.74,1.26,3.47,1.89,5.21,0,.17-.01,.34-.02,.52-.11,.15-.23,.3-.31,.46-.15,.3-.27,.61-.43,.98-.63-.72-.48-1.32-.15-1.94,.47-.87,.41-1.07-.51-1.65-.11,.58-.22,1.13-.33,1.67l-.06-.03s.04,.02,.05,.03c.05,.79,.11,1.58,.16,2.37-.1,0-.2,0-.3,0-1.28-4.32-3.03-8.46-4.84-12.57-.54-1.24-1.11-2.47-1.66-3.68,0,3.55,.04,7.1-.01,10.65-.05,3.3,.72,6.34,2.45,9.18,.73,1.2,1.21,2.56,1.71,3.88,.19,.52,.18,1.15,.12,1.71-.04,.29-.36,.71-.62,.78-.24,.06-.68-.2-.87-.45-.31-.42-.47-.94-.71-1.4-.25-.47-.52-.94-.79-1.4-.1-.07-.21-.15-.31-.22-.14-1.15-.81-2.05-1.3-3.05,0,2.66,0,5.26,0,7.85-.07,1.25-.13,2.5-.2,3.78h.74c-.16,1.28-.32,2.55-.47,3.83,.09,.02,.18,.04,.27,.06,2.73-1.98,4.52-4.7,5.91-7.73,.25-.04,.49-.08,.74-.12,.15,.2,.31,.4,.62,.8,.21-.49,.38-.82,.48-1.17,.2-.74,.23-1.57,.59-2.22,.28-.51,.96-.81,1.46-1.2,.2,.3,.37,.63,.61,.89,1.67,1.89,3.87,3.01,5.99,4.29,1.61,.97,2.79,.81,4.1-.3,.51-.44,1.11-.78,1.78-1.24-1.18-.12-2.19-.15-3.16-.33-3.56-.68-6.69-2.18-9.06-5.02,.48-.21,.96-.41,1.37-.59-.19-.33-.34-.6-.5-.87ZM9.39,43.84c-.05-.05-.1-.11-.15-.16,.01,.08,.03,.17,.04,.25,1.25,2.14,4.11,4.14,6.31,3.83-.74-.47-1.41-.9-2.09-1.32-1.37-.87-2.74-1.73-4.11-2.6ZM47.92,14.13c-.04,1.05-.11,2.09-.12,3.14-.02,1.8,0,3.6,0,5.41,.08,.02,.16,.05,.24,.07,.45-1.07,.9-2.14,1.35-3.2,.16-.05,.32-.09,.47-.14,.33-.75,.63-1.51,.99-2.24,.23-.47,.41-1.12,1.18-.88,.73,.22,.55,.86,.59,1.39,.01,.16,.01,.33-.04,.47-.53,1.31-.91,2.72-1.66,3.89-1.92,3-2.73,6.22-2.66,9.75,.07,3.45,0,6.91-.02,10.36,0,.39,.04,.78,.06,1.16-.03,0-.06,0-.08,.01,.02,0,.05-.02,.07-.03,.16-.36,.34-.71,.48-1.07,1.84-4.62,3.86-9.17,5.48-13.86,2.49-7.21,1-13.75-4.06-19.46-.57-.64-1.29-1.16-1.95-1.73-.09,.06-.18,.11-.27,.17,.1,.89,.2,1.78,.3,2.67,.02,.09,.04,.18,.06,.27,.02,.08,.03,.15,.05,.23-.19,.12-.55,.24-.55,.36,0,1.09,.05,2.17,.09,3.26Zm-3,61.88c-.1,.07-.21,.13-.31,.2-.1,.11-.23,.2-.29,.33-.33,.74-.61,1.52-.99,2.23-.12,.22-.52,.44-.75,.4-.23-.03-.56-.37-.6-.6-.08-.56-.18-1.21,.02-1.71,.64-1.63,1.36-3.24,2.13-4.82,.89-1.81,1.81-3.62,1.88-5.66,.15-4.48,.18-8.97,.25-13.46-.56,.96-1.02,1.95-1.46,2.95-1.79,4.1-3.65,8.18-4.87,12.5-2.08,7.39-.27,13.72,5.24,19.03,.32,.31,.71,.53,1.06,.8,.07-.05,.13-.1,.2-.14-.16-1.22-.32-2.43-.48-3.65,.17,.04,.34,.07,.6,.13-.07-.8-.13-1.57-.19-2.34v-9.75c-.54,1.31-1,2.43-1.45,3.54Zm-2.53-34.64c-1.95-4.11-3.72-8.3-4.9-12.7-1-3.73-3.06-6.61-6.42-8.54-2.89-1.66-6.03-2.14-9.29-2.05-.19,0-.38,.04-.66,.07,.25,.29,.42,.49,.6,.68,2.71,2.81,5.37,5.66,8.14,8.41,2.46,2.44,4.55,5.09,6.03,8.24,1.09,2.31,2.69,4.28,4.56,6.01,.92,.86,1.91,1.65,2.86,2.47l.14-.03s-.01-.04-.02-.05c-.04,.04-.08,.07-.12,.11-.03-.23-.02-.48-.1-.69-.21-.55-.45-1.08-.68-1.62,.14-.05,.28-.09,.42-.14,0-.04-.02-.09-.03-.13-.18-.02-.35-.03-.53-.05Zm8.52,2.58c3.07-2.09,5.56-4.7,7.33-7.96,1.41-2.6,2.74-5.23,4.87-7.35,2.31-2.31,4.6-4.65,6.88-6.98,1.1-1.12,2.17-2.26,3.25-3.39-.04-.09-.08-.18-.11-.26-1.46,.09-2.93,.08-4.37,.29-5.96,.87-9.92,4.08-11.76,9.93-1.06,3.36-2.35,6.65-3.61,9.95-.75,1.96-1.65,3.86-2.49,5.78Zm-7.33,8.35c-3.07,2.2-5.5,4.94-7.35,8.17-1.27,2.22-2.49,4.45-4.35,6.27-2.47,2.42-4.86,4.9-7.28,7.37-1.13,1.16-2.24,2.33-3.35,3.49,.04,.06,.05,.1,.07,.1,.13,.02,.26,.04,.39,.04,2.44,.05,4.85-.11,7.17-.95,4.27-1.56,7.31-4.35,8.56-8.82,1.17-4.17,2.72-8.19,4.57-12.11,.56-1.18,1.06-2.38,1.58-3.57Zm7.55-2.9c.57,.4,1.1,.8,1.66,1.17,5.07,3.28,10.52,5.75,16.22,7.7,2.91,.99,5.85,1.79,8.95,1.7,1.21-.04,2.42-.25,3.63-.39v-.26c-2.75-.9-5.19-2.33-7.45-4.09-3.1-2.41-6.5-4.15-10.34-5.08-4.12-1-8.32-.8-12.5-.89-.04,0-.07,.06-.18,.15ZM12.79,59.44c.29,.08,.58,.19,.87,.25,2.2,.41,4.45,.46,6.59-.1,2.95-.76,5.87-1.66,8.73-2.73,4.72-1.76,9.22-4.01,13.44-6.8,.3-.2,.58-.45,.92-.72-2.34,0-4.54-.05-6.74,.01-4.96,.14-9.65,1.29-13.84,4.08-1.03,.69-2.01,1.45-3.01,2.18-2.13,1.57-4.43,2.84-6.95,3.83Zm38.33-12.78c.02,.07,.04,.14,.06,.21,.12,.01,.24,.03,.36,.03,2.69,0,5.38,0,8.07-.02,4.56-.05,8.7-1.4,12.45-3.99,1.89-1.3,3.78-2.59,5.75-3.77,1.21-.72,2.55-1.21,3.97-1.87-.45-.12-.79-.28-1.13-.29-1.89-.02-3.84-.29-5.66,.07-7.6,1.5-14.81,4.09-21.46,8.13-.8,.49-1.6,.99-2.4,1.49Zm-7.71,.16c-.25-.2-.41-.37-.6-.47-2.23-1.25-4.37-2.7-6.71-3.69-3.87-1.65-7.86-3.04-11.82-4.46-2.77-1-5.65-1.54-8.61-1.41-.98,.04-1.96,.23-3.11,.38,.24,.21,.29,.29,.35,.31,3.17,.95,5.81,2.83,8.42,4.76,2.6,1.92,5.42,3.36,8.58,4.06,4.42,.98,8.89,.6,13.49,.54Zm31.3-27.29c-.3,.32-.49,.52-.68,.73-2.48,2.66-4.9,5.37-7.44,7.97-2.15,2.2-4.21,4.42-5.51,7.26-.54,1.19-1.19,2.32-1.83,3.54,.27-.08,.52-.14,.76-.22,1.25-.42,2.47-.92,3.74-1.27,5.41-1.49,9.03-4.8,10.52-10.29,.68-2.5,.7-5.02,.44-7.72Zm-39.64,19.55c-.42-.82-.77-1.43-1.06-2.07-1.29-2.79-2.88-5.35-5.08-7.56-2.78-2.8-5.44-5.72-8.14-8.6-.36-.39-.69-.8-1.04-1.2-.1,.03-.19,.06-.29,.08,.1,1.88,.04,3.78,.33,5.63,.74,4.61,2.79,8.52,7.13,10.67,2.52,1.24,5.28,2,8.15,3.05Zm.41,18.09c-.24,.05-.42,.07-.58,.13-1.88,.74-3.8,1.43-5.64,2.27-1.5,.68-3.09,1.34-4.33,2.38-4.37,3.67-5.85,8.53-5.26,14.1,0,.06,.08,.11,.24,.31,.14-.21,.23-.4,.37-.55,2.3-2.5,4.58-5.02,6.9-7.5,1.08-1.15,2.23-2.25,3.35-3.36,2.21-2.2,3.29-5.12,4.94-7.78Zm39.21,19.13c0-1.75,.2-3.4-.04-4.99-.74-4.98-3.23-8.8-7.89-10.98-1.45-.68-2.99-1.15-4.49-1.73-1.02-.4-2.02-.84-3.16-1.32,1.67,3.03,2.99,6.08,5.43,8.42,1.62,1.55,3.21,3.12,4.75,4.74,1.8,1.88,3.53,3.83,5.39,5.86ZM16.96,22.12c-.07-.01-.14-.02-.2-.03-.71,1-1.43,1.99-2.12,3-.81,1.18-.83,1.22,.02,2.4,.87,1.21,1.83,2.37,2.75,3.55,.3,.38,.49,.78,.13,1.21-.36,.42-.79,.35-1.2,.06-.21-.15-.47-.28-.62-.48-.78-1.08-1.54-2.18-2.29-3.28-.17-.24-.28-.52-.48-.89-1.58,2.82-2.77,5.61-3.81,8.65,3.96-2.44,8.05-2.33,12.43-1.41-3.38-3.7-4.44-8.08-4.6-12.77Zm64.64,5.63c-.1,.01-.2,.03-.3,.04-.18,.37-.37,.74-.55,1.12-.62,1.31-1.5,2.41-2.64,3.3-.42,.33-.89,.55-1.32,.04-.43-.5-.14-.93,.23-1.32,.04-.04,.08-.07,.11-.11,.95-1.22,1.9-2.44,2.83-3.67,.45-.6,.51-1.19-.02-1.85-.74-.92-1.39-1.92-2.06-2.89-.11-.16-.16-.38-.23-.57-.09,.08-.17,.15-.26,.23,0,4.75-1.23,9.08-4.52,12.8,4.3-.93,8.37-1.06,12.19,1.31,.07-.07,.15-.14,.22-.21-1.23-2.74-2.46-5.48-3.69-8.23ZM25.68,49.1c-.02-.06-.05-.12-.07-.18-1.39,.08-2.79,.13-4.18,.23-2.35,.17-4.54,.85-6.54,2.14-1.97,1.27-3.99,2.47-5.95,3.75-.48,.32-.9,.81-1.19,1.31-.31,.54,.03,1.29,.59,1.41,.37,.08,.79,.04,1.17-.02,2.13-.38,4.07-1.24,5.95-2.29,3.5-1.97,6.33-5,10.22-6.35Zm42.69-.26c.19,.14,.26,.21,.35,.25,1.53,.81,3.11,1.54,4.58,2.46,2.3,1.43,4.44,3.13,6.8,4.44,1.51,.84,3.29,1.23,4.96,1.76,.58,.18,1.29,.16,1.6-.5,.31-.66-.04-1.24-.56-1.67-.34-.28-.72-.53-1.1-.77-1.67-1.06-3.35-2.09-5-3.18-1.92-1.27-3.96-2.2-6.28-2.4-1.73-.14-3.46-.26-5.35-.4Zm1.23-1.49c.99,0,2.26,.06,3.52-.01,2.06-.11,4.06-.47,5.87-1.61,2.24-1.42,4.53-2.77,6.8-4.16,.18-.11,.36-.23,.51-.37,.5-.47,.61-1.06,.37-1.66-.22-.57-.77-.59-1.28-.54-.5,.05-.99,.12-1.48,.25-2.37,.61-4.53,1.66-6.57,3.01-2.62,1.74-5.26,3.46-7.74,5.09Zm-45.04,.18c0-.09,.01-.17,.02-.26-1.07-.66-2.14-1.32-3.2-1.99-2.58-1.63-5.1-3.36-7.74-4.88-1.47-.85-3.14-1.39-4.9-1.35-.37,0-.96,.23-1.04,.49-.13,.41-.05,1.01,.18,1.38,.26,.42,.76,.71,1.21,.98,1.68,1.03,3.36,2.08,5.08,3.04,1.32,.74,2.65,1.64,4.09,1.97,2.05,.46,4.2,.45,6.31,.64Zm48.55,14.47c1.37,1.66,2.47,3.44,3.18,5.44,.71,2.01,1.07,4.09,1.12,6.43,.9-1.23,1.65-2.31,2.46-3.33,.42-.53,.42-.98,0-1.47-.95-1.12-1.93-2.21-2.84-3.36-.19-.24-.26-.75-.14-1.01,.09-.19,.63-.29,.92-.21,.36,.1,.72,.36,.97,.64,.88,.99,1.72,2.02,2.67,3.16,1.21-2.49,2.42-4.99,3.64-7.49-.06-.06-.12-.13-.19-.19-3.72,2.21-7.69,2.16-11.8,1.41Zm-51.62,.02c-1.99,.13-4.05,.36-6.12,.37-2.09,.01-4.06-.6-5.86-1.74-.06,.07-.13,.13-.19,.2,1.2,2.48,2.4,4.96,3.68,7.6,.29-.48,.4-.75,.59-.96,.86-.98,1.71-1.98,2.62-2.91,.36-.37,.9-.49,1.33,0,.44,.51,.04,.83-.28,1.2-.99,1.16-1.97,2.32-2.89,3.53-.16,.21-.15,.73,0,.96,.76,1.16,1.6,2.27,2.57,3.61,.16-4.7,1.53-8.7,4.53-11.88Zm15.5,16.22c-1.94,2.69-4.56,4.03-7.36,5.23,2.72,1.72,10.5,4.13,12.1,3.82-2.32-2.56-3.91-5.49-4.74-9.04ZM57.32,17.01c1.15-1.01,2.19-2.1,3.4-2.94,1.2-.83,2.58-1.41,3.97-2.15-3.85-2.03-7.83-3.15-11.98-3.84,2.26,2.68,3.95,5.6,4.61,8.93Zm13.41-1.5c-1.36-.87-2.71-1.75-4.08-2.6-.11-.07-.35,0-.5,.07-1.03,.53-2.06,1.05-3.07,1.62-1.8,1.01-3.5,2.14-4.63,3.95-.51,.81-.61,1.64-.24,2.71,3.27-3.97,7.63-5.32,12.52-5.75ZM24.05,80.3c1.24,.77,2.48,1.54,3.73,2.3,.1,.06,.3,0,.43-.06,1.21-.64,2.42-1.28,3.62-1.94,1.47-.81,2.78-1.79,3.86-3.1,.69-.84,.85-1.74,.63-2.9-3.27,3.77-7.47,5.24-12.26,5.71Zm62.89-27.43v-9.16c-.96,1.12-1.92,2.25-2.85,3.33,.3,.1,.74,.16,1.08,.38,.3,.19,.68,.56,.68,.85,0,.29-.38,.64-.68,.85-.34,.24-.77,.35-1.08,.47,.94,1.09,1.86,2.15,2.84,3.27ZM10.15,47.1c-.94-1.12-1.85-2.2-2.65-3.14v8.94c.91-1.09,1.81-2.16,2.72-3.25-.31-.12-.7-.18-.98-.39-.35-.27-.84-.67-.83-.98,.02-.32,.56-.64,.93-.89,.25-.17,.58-.2,.8-.27Zm-.97,6.1c2.12-1.37,4.23-2.75,6.41-4.16-2.21-.27-5.34,1.71-6.41,4.16Zm69.62-4.2c2.09,1.39,4.14,2.75,6.31,4.19-.39-1.98-4.04-4.31-6.31-4.19Zm6.16-5.28c-2.1,1.37-4.19,2.74-6.29,4.12,2.22,.33,5.57-2.15,6.29-4.12Zm-23.57,31.98c-.48-.31-.81-.55-1.17-.72-.05-.02-.4,.4-.38,.42,.23,.28,.49,.57,.8,.74,.1,.06,.39-.22,.75-.45Z"/>
    <path class="cls-20" d="M90.13,53.88c.12-1.41,.23-2.82,.35-4.29,.92,.18,.71,.78,.65,1.15-.17,1.07-.46,2.12-.7,3.17-.1-.01-.2-.03-.3-.04Z"/>
    <path class="cls-20" d="M90.6,44.32c0,.61,.03,1.23,0,1.84,0,.08-.23,.16-.35,.24-.12-.21-.36-.43-.34-.63,.06-.48,.24-.95,.37-1.43l.31-.02Z"/>
    <path class="cls-18" d="M89.34,37.52c-.06-.12-.15-.22-.19-.35-.09-.32-.18-.65-.24-.98-.04-.21-.05-.44-.02-.65,0-.06,.29-.16,.32-.13,.14,.16,.32,.34,.34,.53,.05,.51,.02,1.04,.02,1.55-.07,0-.15,.02-.22,.03Z"/>
    <path class="cls-18" d="M89.3,38.38c.07-.02,.24-.08,.41-.13,.64,.73,.11,1.23-.41,1.77v-1.63Z"/>
    <path class="cls-20" d="M91.16,47.79v.93c-.08,0-.16,0-.23,0v-.91c.08,0,.16-.02,.23-.02Z"/>
    <path class="cls-20" d="M89.05,55.37s.1,.03,.11,.05c.01,.03-.03,.08-.05,.11-.04-.02-.1-.03-.11-.05-.01-.03,.03-.08,.05-.11Z"/>
    <path class="cls-10" d="M75.12,79.42c.83-.83,1.66-1.65,2.49-2.48,.45,.4,.36,.71-.11,1.04-.71,.5-1.39,1.05-2.09,1.56-.05,.03-.19-.08-.3-.12Z"/>
    <path class="cls-21" d="M74.19,80.28c.11-.1,.23-.21,.34-.31-.11,.1-.23,.21-.34,.31Z"/>
    <path class="cls-1" d="M50.91,43.95c.83-1.93,1.74-3.83,2.49-5.78,1.26-3.29,2.55-6.58,3.61-9.95,1.84-5.84,5.8-9.06,11.76-9.93,1.44-.21,2.91-.2,4.37-.29,.04,.09,.08,.18,.11,.26-1.08,1.13-2.16,2.27-3.25,3.39-2.29,2.34-4.57,4.68-6.88,6.98-2.13,2.12-3.46,4.75-4.87,7.35-1.76,3.25-4.26,5.87-7.33,7.96Z"/>
    <path class="cls-5" d="M43.31,43.99c-.96-.82-1.94-1.62-2.86-2.48-1.87-1.73-3.47-3.7-4.56-6.01-1.48-3.15-3.58-5.81-6.03-8.24-2.77-2.75-5.43-5.6-8.14-8.41-.18-.19-.35-.39-.6-.68,.29-.03,.47-.07,.66-.07,3.27-.09,6.41,.39,9.29,2.05,3.37,1.93,5.42,4.81,6.42,8.54,1.19,4.4,2.95,8.59,4.9,12.7,.05,.11,.09,.22,.14,.32,.23,.54,.48,1.07,.68,1.62,.08,.21,.07,.46,.1,.69,0,0,0-.02,0-.02Z"/>
    <path class="cls-6" d="M43.59,52.3c-.53,1.19-1.03,2.4-1.58,3.57-1.85,3.91-3.4,7.93-4.57,12.11-1.25,4.47-4.3,7.26-8.56,8.82-2.31,.84-4.73,1.01-7.17,.95-.13,0-.26-.02-.39-.04-.02,0-.03-.04-.07-.1,1.11-1.16,2.22-2.34,3.35-3.49,2.42-2.47,4.81-4.95,7.28-7.37,1.86-1.82,3.08-4.06,4.35-6.27,1.85-3.23,4.28-5.97,7.35-8.17Z"/>
    <path class="cls-7" d="M48.27,10.01c-.1-.89-.2-1.78-.3-2.67,.09-.06,.18-.11,.27-.17,.65,.57,1.37,1.08,1.95,1.73,5.06,5.7,6.55,12.24,4.06,19.46-1.62,4.69-3.64,9.25-5.48,13.86-.15,.36-.32,.72-.48,1.07,0,0,.01,.02,.01,.02-.02-.39-.06-.78-.06-1.17,0-3.45,.09-6.91,.02-10.36-.07-3.53,.74-6.75,2.66-9.75,.75-1.17,1.13-2.58,1.66-3.89,.06-.14,.06-.31,.04-.47-.04-.53,.14-1.17-.59-1.39-.77-.23-.94,.42-1.18,.88-.36,.73-.66,1.49-.99,2.24-.07-.21-.16-.41-.19-.62-.43-2.76-.85-5.52-1.28-8.28-.02-.08-.03-.15-.05-.23-.02-.09-.04-.18-.06-.27Z"/>
    <path class="cls-4" d="M40.38,14.63c.05-.1,.09-.19,.14-.29,.31-.59,.62-1.19,.94-1.78,0,0,.03-.05,.03-.05,.43-.64,.87-1.29,1.3-1.93l-.03-.03s.04,.02,.04,.02c.35-.44,.7-.88,1.04-1.33,.05-.05,.1-.11,.15-.16,.2-.21,.4-.43,.6-.64,.54-.42,1.08-.85,1.62-1.27,.06,.04,.13,.08,.19,.12-.17,1.33-.33,2.66-.5,3.98-.37,2.28-.73,4.56-1.1,6.83-.07,.33-.15,.66-.27,1.22-.26-.7-.45-1.22-.63-1.74-.38-1.05-.81-1.48-1.39-1.36-.51,.11-.85,.87-.63,1.85,.21,.97,.53,1.93,.95,2.83,.66,1.43,1.5,2.78,2.16,4.21,.89,1.92,1.13,3.99,1.14,6.09,0,4,0,8.01,0,12.12-.68-1.48-1.34-2.91-1.99-4.33-1.28-3.37-2.57-6.73-3.86-10.09-.03-.08-.13-.14-.2-.21-.05-.36-.07-.73-.16-1.08-1.14-4.25-1.12-8.46,.33-12.63,0,0,0,0,0,0,.05-.12,.1-.23,.16-.34Z"/>
    <path class="cls-8" d="M56.66,66.81c-.63-1.74-1.26-3.47-1.89-5.21h0c-.47-1.23-.9-2.49-1.42-3.71-.7-1.65-1.48-3.26-2.22-4.89-.05-.1-.02-.24-.02-.37,.06-.05,.13-.1,.19-.16,1.07,1,2.2,1.96,3.21,3.02,1.78,1.89,3.24,4.03,4.42,6.34,1.56,3.07,4.03,5.37,6.41,7.76,2.58,2.59,5.13,5.23,7.69,7.85,.05,.05,.06,.13,.12,.28-2.67,.16-5.23-.14-7.73-.93-2.94-1.22-5.41-3-7.1-5.76-.55-1.41-1.11-2.82-1.66-4.24Z"/>
    <path class="cls-3" d="M45.97,84.42c.16,1.22,.32,2.43,.48,3.65-.07,.05-.13,.1-.2,.14-.36-.26-.75-.49-1.06-.8-5.51-5.3-7.32-11.64-5.24-19.03,1.22-4.32,3.07-8.4,4.87-12.5,.44-1,.9-2,1.46-2.95-.08,4.49-.1,8.97-.25,13.46-.07,2.03-.99,3.85-1.88,5.66-.78,1.57-1.49,3.18-2.13,4.82-.2,.5-.1,1.15-.02,1.71,.03,.24,.36,.57,.6,.6,.23,.03,.63-.18,.75-.4,.38-.72,.66-1.49,.99-2.23,.06-.13,.19-.22,.29-.33,.45,2.74,.9,5.48,1.36,8.21Z"/>
    <path class="cls-6" d="M49.54,75.91c.26,.47,.54,.93,.79,1.4,.24,.47,.4,.99,.71,1.4,.18,.25,.62,.51,.87,.45,.27-.07,.59-.48,.62-.78,.07-.56,.08-1.19-.12-1.71-.49-1.32-.98-2.68-1.71-3.88-1.73-2.84-2.49-5.87-2.45-9.18,.05-3.55,.01-7.1,.01-10.65,.54,1.2,1.11,2.44,1.66,3.68,1.81,4.12,3.56,8.25,4.84,12.57,.89,3.79,.77,7.53-.59,11.2-1.39,3.03-3.17,5.75-5.91,7.73-.09-.02-.18-.04-.27-.06,.16-1.28,.32-2.55,.47-3.83,.07-.3,.18-.6,.21-.91,.3-2.48,.58-4.96,.86-7.43Z"/>
    <path class="cls-8" d="M51.13,49.39c.11-.09,.15-.15,.18-.15,4.18,.08,8.38-.11,12.5,.89,3.83,.93,7.24,2.67,10.34,5.08,2.26,1.76,4.7,3.19,7.44,4.09v.26c-1.2,.14-2.41,.35-3.62,.39-3.1,.1-6.05-.71-8.95-1.7-5.7-1.94-11.15-4.42-16.22-7.7-.56-.36-1.1-.77-1.66-1.17Z"/>
    <path class="cls-1" d="M12.79,59.44c2.53-.99,4.82-2.26,6.95-3.83,1-.73,1.98-1.49,3.01-2.18,4.19-2.79,8.88-3.93,13.84-4.08,2.2-.06,4.41-.01,6.74-.01-.34,.27-.61,.52-.92,.72-4.21,2.79-8.71,5.04-13.44,6.8-2.85,1.06-5.78,1.96-8.73,2.73-2.15,.56-4.39,.51-6.59,.1-.3-.06-.58-.16-.87-.25Z"/>
    <path class="cls-1" d="M51.12,46.66c.8-.5,1.59-1,2.4-1.49,6.65-4.04,13.87-6.63,21.46-8.13,1.82-.36,3.77-.08,5.66-.07,.34,0,.68,.17,1.13,.29-1.42,.66-2.76,1.15-3.97,1.87-1.96,1.17-3.86,2.47-5.75,3.77-3.75,2.58-7.89,3.94-12.45,3.99-2.69,.03-5.38,.02-8.07,.02-.12,0-.24-.02-.36-.03-.02-.07-.04-.14-.06-.21Z"/>
    <path class="cls-9" d="M43.41,46.82c-4.6,.07-9.08,.44-13.49-.54-3.16-.7-5.98-2.14-8.58-4.06-2.61-1.93-5.25-3.82-8.42-4.76-.06-.02-.11-.09-.35-.31,1.15-.14,2.12-.33,3.11-.38,2.96-.13,5.84,.41,8.61,1.41,3.96,1.43,7.95,2.82,11.82,4.46,2.34,.99,4.48,2.44,6.71,3.69,.19,.11,.34,.27,.6,.47Z"/>
    <path class="cls-1" d="M74.71,19.54c.26,2.7,.24,5.22-.44,7.72-1.5,5.49-5.11,8.79-10.52,10.29-1.27,.35-2.49,.85-3.74,1.27-.24,.08-.49,.14-.76,.22,.63-1.22,1.28-2.36,1.83-3.54,1.3-2.84,3.36-5.06,5.51-7.26,2.54-2.6,4.97-5.31,7.44-7.97,.19-.2,.38-.41,.68-.73Z"/>
    <path class="cls-8" d="M35.07,39.09c-2.86-1.05-5.63-1.81-8.15-3.05-4.34-2.14-6.38-6.06-7.13-10.67-.3-1.85-.23-3.75-.33-5.63,.1-.03,.19-.06,.29-.08,.34,.4,.67,.82,1.04,1.2,2.7,2.88,5.36,5.8,8.14,8.6,2.19,2.21,3.79,4.76,5.08,7.56,.3,.64,.64,1.26,1.06,2.07Z"/>
    <path class="cls-6" d="M35.49,57.17c-1.66,2.66-2.73,5.58-4.94,7.78-1.12,1.11-2.27,2.21-3.35,3.36-2.32,2.48-4.61,4.99-6.9,7.5-.14,.15-.23,.34-.37,.55-.16-.2-.24-.25-.24-.31-.59-5.57,.88-10.43,5.26-14.1,1.24-1.04,2.83-1.7,4.33-2.38,1.84-.84,3.75-1.52,5.64-2.27,.16-.06,.34-.08,.58-.13Z"/>
    <path class="cls-2" d="M74.7,76.31c-1.86-2.03-3.59-3.97-5.39-5.86-1.54-1.62-3.14-3.19-4.75-4.74-2.45-2.34-3.77-5.4-5.43-8.42,1.14,.48,2.14,.92,3.16,1.32,1.49,.59,3.04,1.06,4.49,1.73,4.66,2.18,7.15,6.01,7.89,10.98,.24,1.59,.04,3.24,.04,4.99Z"/>
    <path class="cls-21" d="M16.96,22.12c.16,4.69,1.22,9.06,4.6,12.77-4.38-.92-8.46-1.03-12.43,1.41,1.04-3.04,2.23-5.83,3.81-8.65,.2,.37,.31,.65,.48,.89,.75,1.1,1.51,2.2,2.29,3.28,.15,.2,.4,.33,.62,.48,.41,.29,.84,.37,1.2-.06,.37-.43,.17-.82-.13-1.21-.93-1.18-1.88-2.33-2.75-3.55-.85-1.18-.82-1.22-.02-2.4,.69-1.01,1.41-2,2.12-3,.07,.01,.14,.02,.2,.03Zm-3.44,9.72c-.34,.45-.72,.73-.69,.95,.05,.29,.42,.53,.65,.79,.25-.25,.63-.47,.7-.76,.05-.2-.33-.51-.66-.97Z"/>
    <path class="cls-19" d="M81.6,27.75c1.23,2.74,2.46,5.48,3.69,8.23-.07,.07-.15,.14-.22,.21-3.82-2.36-7.9-2.24-12.19-1.31,3.29-3.72,4.51-8.05,4.52-12.8,.09-.08,.17-.15,.26-.23,.08,.19,.12,.4,.23,.57,.67,.97,1.33,1.97,2.06,2.89,.53,.66,.47,1.24,.02,1.85-.93,1.23-1.88,2.45-2.83,3.67-.03,.04-.08,.07-.11,.11-.37,.39-.66,.81-.23,1.32,.43,.51,.9,.29,1.32-.04,1.14-.89,2.02-2,2.64-3.3,.18-.37,.36-.75,.55-1.12,.1-.01,.2-.03,.3-.04Zm.33,5.16c-.46-.39-.74-.8-1.01-.79-.26,0-.71,.43-.71,.67,0,.27,.38,.71,.65,.76,.25,.05,.58-.33,1.07-.65Z"/>
    <path class="cls-18" d="M25.68,49.1c-3.89,1.35-6.72,4.39-10.22,6.35-1.87,1.05-3.82,1.91-5.95,2.29-.38,.07-.8,.11-1.17,.02-.56-.12-.9-.87-.59-1.41,.29-.5,.71-.99,1.19-1.31,1.96-1.29,3.98-2.48,5.95-3.75,2-1.29,4.19-1.97,6.54-2.14,1.39-.1,2.79-.16,4.18-.23,.02,.06,.05,.12,.07,.18Z"/>
    <path class="cls-21" d="M68.37,48.84c1.88,.14,3.61,.26,5.35,.4,2.32,.19,4.36,1.13,6.28,2.4,1.65,1.09,3.33,2.12,5,3.18,.38,.24,.76,.48,1.1,.77,.52,.43,.87,1.01,.56,1.67-.31,.66-1.01,.68-1.6,.5-1.68-.53-3.45-.92-4.96-1.76-2.36-1.32-4.5-3.01-6.8-4.44-1.47-.91-3.05-1.64-4.58-2.46-.08-.04-.15-.11-.35-.25Z"/>
    <path class="cls-18" d="M69.6,47.35c2.48-1.63,5.12-3.35,7.74-5.09,2.03-1.35,4.2-2.41,6.57-3.01,.48-.12,.98-.2,1.48-.25,.51-.05,1.06-.03,1.28,.54,.24,.61,.13,1.2-.37,1.66-.15,.14-.33,.26-.51,.37-2.27,1.38-4.56,2.74-6.8,4.16-1.8,1.14-3.81,1.5-5.87,1.61-1.26,.07-2.53,.01-3.52,.01Z"/>
    <path class="cls-21" d="M24.56,47.54c-2.11-.19-4.26-.18-6.31-.64-1.44-.32-2.76-1.23-4.09-1.97-1.72-.96-3.4-2.01-5.08-3.04-.44-.27-.94-.56-1.21-.98-.23-.37-.31-.97-.18-1.38,.08-.25,.67-.48,1.04-.49,1.76-.04,3.42,.5,4.9,1.35,2.64,1.52,5.17,3.25,7.74,4.88,1.06,.67,2.14,1.33,3.2,1.99,0,.09-.01,.17-.02,.26Z"/>
    <path class="cls-12" d="M40.07,28.69c.07,.07,.17,.13,.2,.21,1.29,3.36,2.57,6.73,3.86,10.09-.3,.63-.2,1.23,.22,1.75,.44,.53,.64,1.1,.6,1.79-.02,.35,.16,.72,.26,1.08-.09,.03-.18,.06-.27,.09-.27-.8-.54-1.61-.81-2.43-.04,.1-.14,.27-.15,.45-.03,.42,0,.84,0,1.26-.1-.01-.2-.02-.3-.04,.01-.02,.02-.04,.03-.06-.01,.02-.02,.04-.03,.05-.06-.2-.17-.4-.18-.61-.09-1.08-.15-2.16-.25-3.24-.01-.14-.2-.26-.38-.48-.12,.54-.19,.91-.3,1.26-.02,.07-.23,.08-.48,.15,0-.54,0-1.03,0-1.51,0-.94-.74-1.44-1.23-2.08-.13-.17-.25-.36-.34-.56-.17-.39-.33-.78-.48-1.17-.06-.16-.18-.37-.13-.51,.26-.68,.06-1.21-.39-1.74-.13-.15-.06-.46-.12-.68-.05-.18-.14-.48-.24-.5-.67-.1-.69-.73-.77-1.1-.37-1.64-.57-3.32-.94-4.96-.12-.5-.61-.92-1.03-1.31,0-.43,.06-.85-.62-1.09-.6-.22-.61-.74-.17-1.26,.13-.16,.22-.35,.33-.52,.15-.07,.42-.12,.43-.22,.15-1.05-.03-2.03-.74-2.87-.34-.4-.69-.79-1.03-1.18,.15-.28,.29-.56,.51-.98,.22,.5,.37,.83,.56,1.25,.26-.3,.44-.5,.62-.71,.04,.05,.07,.1,.11,.15v1.03c1.01-.52,1.24,.03,1.35,.87,.06,.45,.31,.87,.52,1.42,.3-.42,.47-.67,.65-.92-.04,3.09-.09,6.17,.66,9.2,.06,.23,.32,.4,.49,.6Z"/>
    <path class="cls-21" d="M73.11,62.01c4.11,.75,8.07,.8,11.8-1.41,.06,.06,.12,.13,.19,.19-1.22,2.5-2.43,5.01-3.64,7.49-.95-1.13-1.79-2.17-2.67-3.16-.25-.28-.61-.55-.97-.64-.28-.08-.83,.03-.92,.21-.13,.26-.06,.77,.14,1.01,.91,1.15,1.89,2.25,2.84,3.36,.42,.49,.42,.94,0,1.47-.81,1.02-1.56,2.1-2.46,3.33-.05-2.34-.41-4.42-1.12-6.43-.71-2.01-1.8-3.78-3.18-5.44Zm7.75,.86c-.36,.45-.74,.71-.72,.95,.02,.24,.42,.58,.68,.62,.2,.03,.64-.35,.65-.57,.02-.26-.31-.53-.61-1Z"/>
    <path class="cls-21" d="M21.5,62.03c-3.01,3.19-4.37,7.18-4.53,11.88-.97-1.35-1.81-2.46-2.57-3.61-.15-.23-.16-.75,0-.96,.92-1.21,1.9-2.38,2.89-3.53,.32-.37,.72-.69,.28-1.2-.43-.49-.97-.37-1.33,0-.92,.93-1.76,1.93-2.62,2.91-.18,.21-.3,.48-.59,.96-1.28-2.65-2.48-5.12-3.68-7.6,.06-.07,.13-.13,.19-.2,1.8,1.14,3.77,1.75,5.86,1.74,2.06-.01,4.12-.24,6.12-.37Zm-6.89,1.84c-.48-.35-.7-.62-.96-.68-.51-.11-.76,.29-.71,.7,.03,.25,.39,.64,.58,.63,.3-.02,.58-.33,1.09-.66Z"/>
    <path class="cls-11" d="M58.54,79.43c.68,.63,1.29,1.38,2.06,1.85,1.16,.72,2.43,1.24,3.66,1.85,.2,.1,.41,.18,.65,.29-2.07,1.53-9.92,4.04-12.29,3.92,2.32-2.63,4.09-5.49,4.59-9.04,.49,.41,.9,.76,1.32,1.12,0,0,0,0,0,0Zm.22,2.31c-.12,0-.25,0-.37,.01-.2,.31-.53,.6-.58,.93-.07,.52,.35,.89,.83,.79,.31-.06,.76-.5,.76-.77,0-.32-.41-.64-.64-.96Z"/>
    <path class="cls-21" d="M36.4,16.5c-.04-.05-.07-.1-.11-.15-.73-.66-1.46-1.31-2.18-1.97,0,0-.01,0-.01,0,0-.04,0-.07-.05-.08-.1-.06-.19-.12-.29-.18-1.28-.71-2.57-1.42-3.84-2.13,1.05-1.11,8.66-3.79,11.76-3.89-.95,1.41-2.04,2.76-2.85,4.27-.79,1.49-1.3,3.13-1.94,4.72-.14-.16-.32-.38-.5-.59Zm-1.68-3.69c.51,.42,.82,.87,1.07,.84,.31-.04,.76-.43,.82-.74,.09-.48-.3-.88-.82-.82-.3,.03-.56,.36-1.07,.72Z"/>
    <path class="cls-21" d="M37,78.25c.83,3.56,2.42,6.48,4.74,9.04-1.6,.31-9.38-2.1-12.1-3.82,2.8-1.19,5.42-2.54,7.36-5.23Zm-1.04,3.47h-.35c-.21,.33-.63,.7-.56,.94,.09,.33,.55,.56,.85,.83,.25-.29,.67-.57,.69-.88,.02-.29-.39-.6-.62-.9Z"/>
    <path class="cls-21" d="M57.32,17.01c-.67-3.33-2.35-6.26-4.61-8.93,4.15,.69,8.13,1.8,11.98,3.84-1.39,.74-2.77,1.32-3.97,2.15-1.21,.84-2.25,1.93-3.4,2.94Zm1.49-4.98c-.82,.05-1.11,.44-.99,.9,.08,.32,.5,.55,.76,.82,.26-.31,.68-.58,.74-.93,.04-.26-.37-.59-.51-.79Z"/>
    <path class="cls-19" d="M34.6,16.78c.34,.39,.69,.78,1.03,1.18,.71,.83,.89,1.82,.74,2.87-.01,.09-.28,.14-.43,.22-2.63-3.09-6.07-4.61-10.01-5.15-.7-.1-1.4-.15-2.37-.25,1.51-.99,2.83-1.86,4.18-2.7,.12-.08,.41,0,.57,.09,1.9,1.07,3.8,2.15,5.7,3.23,.11,.09,.22,.19,.33,.28l.27,.25Z"/>
    <path class="cls-20" d="M70.72,15.51c-4.89,.43-9.25,1.78-12.52,5.75-.38-1.08-.27-1.9,.24-2.71,1.13-1.81,2.83-2.94,4.63-3.95,1.01-.57,2.04-1.09,3.07-1.62,.14-.07,.39-.14,.5-.07,1.37,.85,2.72,1.73,4.08,2.6Z"/>
    <path class="cls-18" d="M24.05,80.3c4.8-.47,9-1.94,12.26-5.71,.22,1.16,.06,2.06-.63,2.9-1.08,1.31-2.39,2.29-3.86,3.1-1.2,.66-2.41,1.3-3.62,1.94-.12,.06-.33,.12-.43,.06-1.25-.75-2.49-1.53-3.73-2.3Z"/>
    <path class="cls-19" d="M58.31,74.8c2.38,2.84,5.5,4.34,9.06,5.02,.97,.19,1.98,.21,3.16,.33-.67,.46-1.27,.8-1.78,1.24-1.31,1.11-2.5,1.27-4.1,.3-2.13-1.28-4.32-2.4-5.99-4.29-.24-.27-.41-.59-.61-.89-.03-.63-.07-1.26-.1-1.88,0,0,.06,0,.06,0h.06c.08,.05,.16,.11,.24,.17Z"/>
    <path class="cls-14" d="M57.95,74.62c.03,.63,.07,1.26,.1,1.88-.5,.39-1.18,.69-1.46,1.2-.36,.65-.38,1.48-.59,2.22-.1,.35-.28,.68-.48,1.17-.31-.4-.47-.6-.62-.8,0-.11,0-.21,0-.32,.16-.63,.32-1.27,.47-1.9,0-.34-.04-.69,.03-1.02,.56-2.65,.43-5.26-.34-7.84-.05-.79-.11-1.58-.16-2.37,0,0,0,0,0,0,.11-.55,.21-1.09,.33-1.67,.92,.59,.98,.79,.51,1.65-.33,.62-.48,1.22,.15,1.94,.16-.36,.28-.68,.43-.98,.08-.17,.21-.31,.31-.46,.23,1.33,.54,2.64,1.27,3.8,.02,.42,.08,.83,.06,1.25,0,.19-.15,.38-.23,.57-.2-.11-.5-.17-.57-.34-.17-.38-.23-.81-.33-1.21-.15,.2-.16,.39-.21,.57-.16,.55-.31,1.05,.44,1.36,.13,.05,.1,.64,.06,.97-.02,.16-.22,.29-.34,.44,.04,.06,.07,.12,.11,.18,.35-.1,.7-.2,1.04-.29Z"/>
    <path class="cls-14" d="M54.77,61.6c.03,.41,0,.84,.11,1.23,.1,.39,.33,.75,.55,1.24-1.24-.09-.99,.74-1,1.41,0,.36,0,.72-.16,1.09-.15-.59-.25-1.2-.47-1.77-.31-.79-.31-1.65-.82-2.44-.36-.56-.47-1.44-.7-2.17-.32-1.06-1.28-1.85-1.24-3.05,0-.15-.29-.3-.38-.48-.14-.31-.26-.64-.32-.97-.02-.1,.19-.25,.29-.37,.11,.12,.25,.23,.31,.37,.11,.28,.18,.58,.27,.87,.08,0,.16-.02,.25-.03,.09-.36,.18-.71,.27-1.07,.06-.01,.11-.02,.17-.03,.22,.69,.4,1.39,.65,2.07,.26,.7,.58,1.38,.88,2.06,.24,.54,.46,1.08,.76,1.59,.11,.2,.39,.31,.59,.46,0,0,0,0,0,0Z"/>
    <path class="cls-10" d="M86.93,52.87c-.98-1.13-1.9-2.19-2.84-3.27,.31-.13,.74-.24,1.08-.47,.3-.21,.68-.56,.68-.85,0-.29-.38-.66-.68-.85-.34-.22-.78-.28-1.08-.38,.93-1.08,1.89-2.21,2.85-3.33v9.16Z"/>
    <path class="cls-21" d="M10.15,47.1c-.22,.07-.55,.11-.8,.27-.36,.25-.91,.57-.93,.89-.02,.32,.48,.72,.83,.98,.28,.21,.67,.28,.98,.39-.91,1.09-1.81,2.16-2.72,3.25v-8.94c.8,.94,1.71,2.03,2.65,3.14Z"/>
    <path class="cls-17" d="M44.92,76.01c.46-1.12,.92-2.23,1.45-3.54,0,3.43,0,6.59,0,9.75-.16-.22-.41-.42-.48-.67-.16-.62-.24-1.26-.35-1.9-.21-1.21-.42-2.43-.63-3.64Z"/>
    <path class="cls-17" d="M49.38,19.54c-.45,1.07-.9,2.14-1.35,3.2-.08-.02-.16-.05-.24-.07,0-1.8-.01-3.61,0-5.41,.01-1.05,.08-2.09,.12-3.14,.37,.75,.89,1.46,1.09,2.26,.26,1.02,.26,2.1,.37,3.16Z"/>
    <path class="cls-22" d="M49.54,75.91c-.29,2.48-.57,4.96-.86,7.43-.04,.31-.14,.61-.21,.91-.2,0-.41,0-.74,0,.07-1.28,.14-2.53,.2-3.78,.26-.69,.55-1.38,.78-2.08,.15-.46,.25-.93,.34-1.41,.08-.43,.12-.87,.18-1.31,.1,.07,.21,.15,.31,.22Z"/>
    <path class="cls-22" d="M44.8,18.11c.37-2.28,.73-4.56,1.1-6.83,.15-.12,.31-.25,.62-.5v5.9c-.39,.07-.78,.14-1.21,.22-.11,.34-.24,.77-.38,1.21-.04,0-.08,0-.13,0Z"/>
    <path class="cls-17" d="M49.23,75.69c-.06,.44-.1,.88-.18,1.31-.09,.47-.19,.95-.34,1.41-.23,.7-.52,1.39-.78,2.08,0-2.59,0-5.18,0-7.85,.49,1,1.17,1.9,1.3,3.05Z"/>
    <path class="cls-17" d="M44.92,18.11c.14-.44,.27-.87,.38-1.21,.44-.08,.83-.15,1.21-.22v5.7c-.87-1.32-1.86-2.58-1.59-4.27Z"/>
    <path class="cls-22" d="M49.38,19.54c-.11-1.06-.12-2.14-.37-3.16-.2-.79-.71-1.51-1.09-2.26-.04-1.09-.09-2.17-.09-3.26,0-.12,.36-.24,.55-.36,.42,2.76,.85,5.52,1.28,8.28,.03,.21,.13,.41,.19,.62-.16,.05-.32,.09-.47,.14Z"/>
    <path class="cls-23" d="M9.18,53.2c1.07-2.45,4.2-4.43,6.41-4.16-2.17,1.41-4.29,2.79-6.41,4.16Z"/>
    <path class="cls-23" d="M78.8,49c2.27-.12,5.92,2.21,6.31,4.19-2.17-1.44-4.22-2.8-6.31-4.19Z"/>
    <path class="cls-23" d="M84.97,43.72c-.72,1.97-4.07,4.45-6.29,4.12,2.1-1.38,4.2-2.75,6.29-4.12Z"/>
    <path class="cls-23" d="M9.39,43.84c1.37,.87,2.74,1.73,4.11,2.6,.68,.43,1.35,.86,2.09,1.32-2.2,.31-5.05-1.69-6.31-3.83,.04-.03,.07-.06,.11-.09Z"/>
    <path class="cls-16" d="M40.07,28.69c-.17-.2-.43-.37-.49-.6-.75-3.03-.7-6.11-.66-9.2,.1-.55,.2-1.1,.3-1.64,.08-.39,.1-.81,.26-1.16,.18-.4,.49-.75,.75-1.12-1.45,4.18-1.47,8.39-.33,12.63,.09,.35,.11,.72,.16,1.08Z"/>
    <path class="cls-16" d="M54.91,79.99c0,.11,0,.21,0,.32-.25,.04-.49,.08-.74,.12,1.36-3.67,1.48-7.41,.59-11.2,.1,0,.2,0,.3,0,.77,2.59,.9,5.2,.34,7.84-.07,.33-.02,.68-.03,1.02-.16,.63-.32,1.27-.47,1.9Z"/>
    <path class="cls-22" d="M44.92,76.01c.21,1.21,.42,2.43,.63,3.64,.11,.63,.19,1.28,.35,1.9,.06,.25,.31,.45,.48,.67,.06,.77,.13,1.54,.19,2.34-.26-.06-.43-.09-.6-.13-.45-2.74-.9-5.48-1.36-8.21,.1-.07,.21-.13,.31-.2Z"/>
    <path class="cls-16" d="M58.32,71.05c1.69,2.76,4.17,4.54,7.1,5.76-1.47,.09-2.55-.8-3.65-1.54-.73-.49-1.33-1.19-2.01-1.77-.14-.12-.39-.1-.58-.15,0-.05,0-.1,0-.16-.11-.19-.23-.38-.31-.58-.22-.49-.43-.98-.64-1.48,.03-.03,.06-.05,.09-.08Z"/>
    <path class="cls-16" d="M57.91,71.12c-.73-1.16-1.04-2.47-1.27-3.8,0-.17,.01-.34,.02-.52,.55,1.41,1.11,2.82,1.66,4.24-.03,.03-.06,.05-.09,.08-.1,0-.21,0-.31,0Z"/>
    <path class="cls-14" d="M59.18,73.18c0,.05,0,.1,0,.16,.15,.27,.31,.54,.5,.87-.41,.18-.89,.38-1.37,.59-.08-.06-.16-.12-.24-.18,.11-.26,.3-.51,.3-.77,.02-.58,.33-.71,.81-.67Z"/>
    <path class="cls-14" d="M61.39,75.69c-.36,.23-.65,.5-.75,.45-.31-.17-.56-.46-.8-.74-.02-.02,.32-.45,.38-.42,.36,.17,.68,.41,1.17,.72Z"/>
    <path class="cls-12" d="M33.76,14.11c.1,.06,.19,.12,.29,.18-.02,.03-.05,.06-.07,.09,.04,0,.08,0,.12-.01,0,0,.01,0,.01,0-.31,.22-.6,.56-.94,.62-.18,.03-.44-.43-.68-.69,.53-.08,.9-.14,1.28-.19Z"/>
    <path class="cls-16" d="M42.79,10.58c-.43,.64-.87,1.29-1.3,1.93-.04-.82,.53-1.67,1.3-1.93Z"/>
    <path class="cls-16" d="M41.46,12.56c-.31,.59-.62,1.19-.94,1.78-.07-.8-.07-1.55,.94-1.78Z"/>
    <path class="cls-16" d="M43.84,9.25c-.35,.44-.7,.88-1.04,1.33-.1-.92,.29-1.4,1.04-1.33Z"/>
    <path class="cls-12" d="M34.33,16.53c-.11-.09-.22-.19-.33-.28-.02-.25-.04-.49-.06-.75,.66,.22,.69,.31,.39,1.03Z"/>
    <path class="cls-14" d="M58.39,78.72c.22-.04,.43-.09,.65-.13,.05,.05,.09,.1,.14,.15-.21,.23-.43,.46-.64,.69,0,0,0,0,0,0-.05-.23-.09-.47-.14-.7Z"/>
    <path class="cls-16" d="M44.59,8.44c-.2,.21-.4,.43-.6,.64-.06-.46,.11-.69,.6-.64Z"/>
    <path class="cls-12" d="M42.53,41.69c-.05-.11-.09-.22-.14-.32,.18,.02,.35,.03,.53,.05,0,.04,.02,.09,.03,.13-.14,.05-.28,.09-.42,.14Z"/>
    <path class="cls-14" d="M58.36,78.75c-.07-.06-.15-.12-.22-.19,.03-.03,.06-.06,.09-.09,.06,.07,.12,.15,.19,.22l-.05,.05Z"/>
    <path class="cls-23" d="M9.29,43.93c-.01-.08-.03-.17-.04-.25,.05,.05,.1,.11,.15,.16-.04,.03-.07,.06-.11,.09Z"/>
    <path class="cls-16" d="M40.38,14.63c-.05,.11-.1,.23-.16,.34,.05-.11,.1-.23,.16-.34Z"/>
    <path class="cls-14" d="M54.9,66.85s-.04-.02-.05-.03c.02,.01,.04,.02,.06,.03,0,0,0,0,0,0Z"/>
    <path class="cls-7" d="M48.28,43.3s-.05,.02-.07,.03c.03,0,.06,0,.09-.01,0,0-.01-.02-.01-.02Z"/>
    <path class="cls-22" d="M48.27,10.01c.02,.09,.04,.18,.06,.27-.02-.09-.04-.18-.06-.27Z"/>
    <path class="cls-5" d="M43.31,44s.08-.07,.12-.11c0,.02,.01,.04,.02,.05-.05,.01-.09,.02-.14,.04,0,0,0,.02,0,.02Z"/>
    <path class="cls-15" d="M13.52,31.84c.33,.46,.71,.77,.66,.97-.07,.29-.45,.51-.7,.76-.23-.26-.6-.5-.65-.79-.04-.21,.34-.5,.69-.95Z"/>
    <path class="cls-12" d="M81.93,32.91c-.5,.32-.82,.69-1.07,.65-.27-.05-.65-.5-.65-.76,0-.25,.46-.67,.71-.67,.27,0,.54,.4,1.01,.79Z"/>
    <path class="cls-13" d="M43.67,42.95s.02-.04,.03-.05c-.01,.02-.02,.04-.03,.06,0,0,0,0,0,0Z"/>
    <path class="cls-15" d="M80.86,62.87c.31,.47,.63,.75,.61,1-.01,.22-.44,.59-.65,.57-.27-.03-.66-.38-.68-.62-.02-.24,.36-.5,.72-.95Z"/>
    <path class="cls-13" d="M14.61,63.87c-.52,.33-.8,.65-1.09,.66-.19,.01-.56-.39-.58-.63-.05-.41,.21-.81,.71-.7,.26,.06,.48,.33,.96,.68Z"/>
    <path class="cls-12" d="M58.75,81.73c.23,.32,.65,.64,.64,.96,0,.27-.45,.71-.76,.77-.47,.1-.89-.27-.83-.79,.04-.33,.37-.62,.58-.93,.12,0,.25,0,.37-.01Z"/>
    <path class="cls-12" d="M34.72,12.81c.51-.36,.78-.68,1.07-.72,.52-.06,.91,.34,.82,.82-.06,.31-.51,.7-.82,.74-.25,.03-.56-.42-1.07-.84Z"/>
    <path class="cls-13" d="M34.09,14.37s-.08,0-.12,.01c.02-.03,.05-.06,.07-.09,.04,.01,.06,.04,.05,.08Z"/>
    <path class="cls-12" d="M35.96,81.72c.22,.3,.63,.61,.62,.9-.02,.31-.44,.59-.69,.88-.3-.27-.76-.5-.85-.83-.06-.24,.36-.62,.56-.93h.35Z"/>
    <path class="cls-12" d="M58.8,12.04c.14,.2,.55,.53,.51,.79-.06,.34-.48,.62-.74,.93-.27-.27-.69-.5-.76-.82-.11-.46,.17-.85,.99-.9Z"/>
    <path class="cls-13" d="M59.18,73.18c-.48-.04-.79,.09-.81,.67,0,.26-.2,.51-.3,.77,0,0-.06,0-.06,0,0,0-.06,0-.06,0-.35,.1-.7,.2-1.04,.29-.04-.06-.07-.12-.11-.18,.12-.15,.32-.28,.34-.44,.04-.33,.07-.92-.06-.97-.76-.3-.6-.8-.44-1.36,.05-.18,.06-.38,.21-.57,.1,.41,.16,.84,.33,1.21,.07,.16,.37,.23,.57,.34,.08-.19,.22-.37,.23-.57,.02-.42-.04-.83-.06-1.25,.1,0,.21,0,.31,0,.21,.49,.42,.99,.64,1.48,.09,.2,.21,.38,.31,.58Z"/>
    <path class="cls-13" d="M54.91,79.99c.16-.63,.32-1.27,.47-1.9-.16,.63-.32,1.27-.47,1.9Z"/>
  </g>
  <path class="cls-13" d="M112.59,69.02c-.53,0-.8-.27-.8-.8V27.16c0-.53,.27-.8,.8-.8h9.06c.53,0,.8,.27,.8,.8v16.96h3.97l2.11-7.97,1.92-9.38c.04-.13,.14-.22,.29-.29,.17-.09,.42-.13,.74-.13h9.22c.53,0,.8,.27,.8,.8v4c0,.23-.03,.47-.1,.7-.06,.21-.12,.41-.16,.58l-3.9,9.38-2.72,5.12,2.78,5.06,4.7,10.69c.09,.15,.15,.31,.19,.48s.06,.42,.06,.74v4.32c0,.53-.27,.8-.8,.8h-9.54c-.15,0-.34-.02-.58-.06-.21-.06-.34-.2-.38-.42l-2.37-10.14-1.76-5.79h-4.48v15.62c0,.53-.27,.8-.8,.8h-9.06Zm36.94,0c-.53,0-.8-.27-.8-.8V27.16c0-.53,.27-.8,.8-.8h22.3c.53,0,.8,.27,.8,.8v6.91c0,.53-.27,.8-.8,.8h-12.45v9.09h11.36c.53,0,.8,.27,.8,.8v5.86c0,.53-.27,.8-.8,.8h-11.36v9.06h12.45c.53,0,.8,.27,.8,.8v6.94c0,.53-.27,.8-.8,.8h-22.3Zm31.56,0c-.53,0-.8-.27-.8-.8V27.16c0-.53,.27-.8,.8-.8h17.34c.51,0,.94,.14,1.28,.42l7.36,7.3c.23,.21,.37,.39,.42,.54,.06,.15,.1,.39,.1,.74v8.77c0,.28-.11,.52-.32,.74l-3.52,3.42-2.98,2.56,3.52,4.67,3.62,7.74c.09,.19,.15,.38,.19,.58,.06,.17,.1,.38,.1,.64v3.74c0,.53-.27,.8-.8,.8h-8.45c-.47,0-.79-.21-.96-.64l-5.15-14.98h-2.4v14.82c0,.53-.27,.8-.8,.8h-8.54Zm12.86-23.46c1.77,0,2.98-.36,3.62-1.09,.64-.75,.96-2.13,.96-4.16s-.32-3.43-.96-4.16c-.64-.75-1.85-1.12-3.62-1.12s-2.95,.37-3.62,1.12c-.66,.73-.99,2.11-.99,4.16s.33,3.41,.99,4.16c.66,.73,1.87,1.09,3.62,1.09Zm19.91,23.46c-.53,0-.8-.27-.8-.8v-29.66c0-.28,.11-.6,.32-.96l7.58-10.75c.24-.32,.58-.48,1.02-.48h10.59c.47,0,.81,.16,1.02,.48l7.62,10.75c.21,.3,.32,.62,.32,.96v29.66c0,.53-.27,.8-.8,.8h-9.06c-.53,0-.8-.27-.8-.8v-13.6h-7.14v13.6c0,.53-.27,.8-.8,.8h-9.09Zm13.44-21.28c1.96,0,3.28-.43,3.97-1.28,.7-.87,1.06-2.53,1.06-4.96s-.35-4.07-1.06-4.93c-.68-.87-2-1.31-3.97-1.31s-3.26,.44-3.97,1.31c-.68,.85-1.02,2.5-1.02,4.93s.34,4.09,1.02,4.96c.7,.85,2.03,1.28,3.97,1.28Zm22.53,21.28c-.53,0-.8-.27-.8-.8V33.5c0-.49,.18-.92,.54-1.28l5.31-5.34c.36-.34,.79-.51,1.28-.51h7.33c.49,0,.92,.17,1.28,.51l5.38,5.41h1.5l5.38-5.41c.36-.34,.79-.51,1.28-.51h7.3c.51,0,.94,.17,1.28,.51l5.34,5.34c.36,.36,.54,.79,.54,1.28v34.72c0,.53-.27,.8-.8,.8h-9.09c-.53,0-.8-.27-.8-.8V34.87h-5.86v33.34c0,.53-.27,.8-.8,.8h-9.06c-.53,0-.8-.27-.8-.8V34.87h-5.89v33.34c0,.53-.27,.8-.8,.8h-9.06Zm58.86,0c-.49,0-.92-.18-1.28-.54l-6.4-6.4c-.36-.34-.54-.77-.54-1.28v-26.24c0-.49,.18-.92,.54-1.28l6.4-6.4c.36-.34,.79-.51,1.28-.51h12.58c.51,0,.94,.17,1.28,.51l6.4,6.4c.36,.36,.54,.79,.54,1.28v26.24c0,.51-.18,.94-.54,1.28l-6.4,6.4c-.34,.36-.77,.54-1.28,.54h-12.58Zm3.78-8.54h5.02c.9,0,1.34-.6,1.34-1.79v-21.98c0-1.22-.45-1.82-1.34-1.82h-5.02c-.88,0-1.31,.61-1.31,1.82v21.98c0,1.19,.44,1.79,1.31,1.79Zm24.53,8.54c-.53,0-.8-.27-.8-.8v-6.02c0-.28,.01-.5,.03-.67,.04-.17,.17-.31,.38-.42l8.38-3.84v-5.7l-8.26-5.12c-.36-.21-.54-.53-.54-.96v-11.74c0-.34,.02-.59,.06-.74,.04-.17,.2-.35,.48-.54l8.42-5.7c.21-.13,.4-.22,.58-.29,.19-.09,.43-.13,.7-.13h8.64c.53,0,.8,.27,.8,.8v5.44c0,.47-.16,.79-.48,.96l-8.38,3.46v5.92l8.38,4.8c.32,.15,.48,.49,.48,1.02v13.92c0,.17-.03,.35-.1,.54-.04,.19-.15,.33-.32,.42l-10.05,4.99c-.13,.06-.29,.15-.48,.26-.17,.09-.34,.13-.51,.13h-7.42Z"/>
</svg>