<svg width="245" height="43" viewBox="0 0 245 43" fill="none" xmlns="http://www.w3.org/2000/svg">
<path d="M1.64 43C1.10667 43 0.84 42.7333 0.84 42.2V1.144C0.84 0.610664 1.10667 0.343998 1.64 0.343998H10.696C11.2293 0.343998 11.496 0.610664 11.496 1.144V18.104H15.464L17.576 10.136L19.496 0.759998C19.5387 0.631997 19.6347 0.535997 19.784 0.471996C19.9547 0.386664 20.2 0.343998 20.52 0.343998H29.736C30.2693 0.343998 30.536 0.610664 30.536 1.144V5.144C30.536 5.37866 30.504 5.61333 30.44 5.848C30.376 6.06133 30.3227 6.25333 30.28 6.424L26.376 15.8L23.656 20.92L26.44 25.976L31.144 36.664C31.2293 36.8133 31.2933 36.9733 31.336 37.144C31.3787 37.3147 31.4 37.56 31.4 37.88V42.2C31.4 42.7333 31.1333 43 30.6 43H21.064C20.9147 43 20.7227 42.9787 20.488 42.936C20.2747 42.872 20.1467 42.7333 20.104 42.52L17.736 32.376L15.976 26.584H11.496V42.2C11.496 42.7333 11.2293 43 10.696 43H1.64ZM38.5775 43C38.0442 43 37.7775 42.7333 37.7775 42.2V1.144C37.7775 0.610664 38.0442 0.343998 38.5775 0.343998H60.8815C61.4148 0.343998 61.6815 0.610664 61.6815 1.144V8.056C61.6815 8.58933 61.4148 8.856 60.8815 8.856H48.4335V17.944H59.7935C60.3268 17.944 60.5935 18.2107 60.5935 18.744V24.6C60.5935 25.1333 60.3268 25.4 59.7935 25.4H48.4335V34.456H60.8815C61.4148 34.456 61.6815 34.7227 61.6815 35.256V42.2C61.6815 42.7333 61.4148 43 60.8815 43H38.5775ZM70.14 43C69.6067 43 69.34 42.7333 69.34 42.2V1.144C69.34 0.610664 69.6067 0.343998 70.14 0.343998H87.484C87.996 0.343998 88.4227 0.482665 88.764 0.759998L96.124 8.056C96.3587 8.26933 96.4973 8.45067 96.54 8.6C96.604 8.74933 96.636 8.99466 96.636 9.336V18.104C96.636 18.3813 96.5293 18.6267 96.316 18.84L92.796 22.264L89.82 24.824L93.34 29.496L96.956 37.24C97.0413 37.432 97.1053 37.624 97.148 37.816C97.212 37.9867 97.244 38.2 97.244 38.456V42.2C97.244 42.7333 96.9773 43 96.444 43H87.996C87.5267 43 87.2067 42.7867 87.036 42.36L81.884 27.384H79.484V42.2C79.484 42.7333 79.2173 43 78.684 43H70.14ZM83.004 19.544C84.7747 19.544 85.98 19.1813 86.62 18.456C87.26 17.7093 87.58 16.3227 87.58 14.296C87.58 12.248 87.26 10.8613 86.62 10.136C85.98 9.38933 84.7747 9.016 83.004 9.016C81.2547 9.016 80.0493 9.38933 79.388 10.136C78.7267 10.8613 78.396 12.248 78.396 14.296C78.396 16.3227 78.7267 17.7093 79.388 18.456C80.0493 19.1813 81.2547 19.544 83.004 19.544ZM102.916 43C102.383 43 102.116 42.7333 102.116 42.2V12.536C102.116 12.2587 102.223 11.9387 102.436 11.576L110.02 0.823997C110.255 0.503998 110.596 0.343998 111.044 0.343998H121.636C122.105 0.343998 122.447 0.503998 122.66 0.823997L130.276 11.576C130.489 11.8747 130.596 12.1947 130.596 12.536V42.2C130.596 42.7333 130.329 43 129.796 43H120.74C120.207 43 119.94 42.7333 119.94 42.2V28.6H112.804V42.2C112.804 42.7333 112.537 43 112.004 43H102.916ZM116.356 21.72C118.319 21.72 119.641 21.2933 120.324 20.44C121.028 19.5653 121.38 17.912 121.38 15.48C121.38 13.048 121.028 11.4053 120.324 10.552C119.641 9.67733 118.319 9.24 116.356 9.24C114.415 9.24 113.092 9.67733 112.388 10.552C111.705 11.4053 111.364 13.048 111.364 15.48C111.364 17.912 111.705 19.5653 112.388 20.44C113.092 21.2933 114.415 21.72 116.356 21.72ZM138.89 43C138.357 43 138.09 42.7333 138.09 42.2V7.48C138.09 6.98933 138.271 6.56267 138.634 6.2L143.946 0.855999C144.309 0.514665 144.735 0.343998 145.226 0.343998H152.554C153.045 0.343998 153.471 0.514665 153.834 0.855999L159.21 6.264H160.714L166.09 0.855999C166.453 0.514665 166.879 0.343998 167.37 0.343998H174.666C175.178 0.343998 175.605 0.514665 175.946 0.855999L181.29 6.2C181.653 6.56267 181.834 6.98933 181.834 7.48V42.2C181.834 42.7333 181.567 43 181.034 43H171.946C171.413 43 171.146 42.7333 171.146 42.2V8.856H165.29V42.2C165.29 42.7333 165.023 43 164.49 43H155.434C154.901 43 154.634 42.7333 154.634 42.2V8.856H148.746V42.2C148.746 42.7333 148.479 43 147.946 43H138.89ZM197.752 43C197.261 43 196.834 42.8187 196.472 42.456L190.072 36.056C189.709 35.7147 189.528 35.288 189.528 34.776V8.536C189.528 8.04533 189.709 7.61867 190.072 7.256L196.472 0.855999C196.834 0.514665 197.261 0.343998 197.752 0.343998H210.328C210.84 0.343998 211.266 0.514665 211.608 0.855999L218.007 7.256C218.37 7.61867 218.552 8.04533 218.552 8.536V34.776C218.552 35.288 218.37 35.7147 218.007 36.056L211.608 42.456C211.266 42.8187 210.84 43 210.328 43H197.752ZM201.528 34.456H206.552C207.448 34.456 207.896 33.8587 207.896 32.664V10.68C207.896 9.464 207.448 8.856 206.552 8.856H201.528C200.653 8.856 200.216 9.464 200.216 10.68V32.664C200.216 33.8587 200.653 34.456 201.528 34.456ZM226.055 43C225.522 43 225.255 42.7333 225.255 42.2V36.184C225.255 35.9067 225.266 35.6827 225.287 35.512C225.33 35.3413 225.458 35.2027 225.671 35.096L234.055 31.256V25.56L225.799 20.44C225.436 20.2267 225.255 19.9067 225.255 19.48V7.736C225.255 7.39467 225.276 7.14933 225.319 7C225.362 6.82933 225.522 6.648 225.799 6.456L234.215 0.759998C234.428 0.631997 234.62 0.535997 234.791 0.471996C234.983 0.386664 235.218 0.343998 235.495 0.343998H244.135C244.668 0.343998 244.935 0.610664 244.935 1.144V6.584C244.935 7.05333 244.775 7.37333 244.455 7.544L236.071 11V16.92L244.455 21.72C244.775 21.8693 244.935 22.2107 244.935 22.744V36.664C244.935 36.8347 244.903 37.016 244.839 37.208C244.796 37.4 244.69 37.5387 244.519 37.624L234.471 42.616C234.343 42.68 234.183 42.7653 233.991 42.872C233.82 42.9573 233.65 43 233.479 43H226.055Z" fill="black"/>
</svg>
