<?xml version="1.0" encoding="UTF-8"?>
<svg id="Livello_1" data-name="Livello 1" xmlns="http://www.w3.org/2000/svg" viewBox="0 0 383.31 252.5">
  <defs>
    <style>
      .cls-1 {
        fill: #fff;
      }
    </style>
  </defs>
  <path class="cls-1" d="M0,141.19c1.49-2.53,2.68-5.31,4.53-7.55,3.37-4.09,8.07-5.7,13.3-5.72,9.85-.04,19.71-.12,29.56,.02,10.62,.15,17.69,7.41,17.7,18.08,0,2.55,.07,4.42,3.26,5.19,17.43,4.24,33.9,3.5,48.42-8.54,.56-.46,1.1-.93,1.52-1.28-3.75-6.99-7.75-13.6-10.95-20.58-8.52-18.58-12.58-38-10.07-58.54C102.02,23.38,141.37-5.96,179.46,1.2c15.47,2.91,26.94,11.8,35.38,24.84,1.21,1.87,2.3,3.81,3.6,5.98,.43-.47,.81-.75,1.01-1.13C235.94-.11,267.67-6.22,296.08,5.64c28.43,11.87,46.05,40.4,44.5,71.52-.19,3.74-2.41,6.22-5.6,6.24-3.17,.02-5.37-2.5-5.63-6.22-.44-6.07-.35-12.27-1.59-18.19-6.15-29.18-34.28-49.99-63.87-47.34-15.11,1.35-25.93,9.6-33.29,22.49-2.39,4.19-4.13,8.78-5.8,13.32-1.16,3.18-2.06,6.4-6.14,6.46-4.09,.06-5.18-3.04-6.21-6.32-3.67-11.69-9.43-22.12-19.91-29.02-15.56-10.24-32.02-9.19-48.22-2.03-25.01,11.06-39.01,36.4-36.35,64.19,1.85,19.29,8.6,36.76,19.25,52.82,.34,.51,.73,.98,1.33,1.77,13.23-8.14,26.68-2.91,39.98-.44,23.75,4.42,47.41,9.36,71.13,13.94,13.7,2.64,21.47,12.81,20.21,26.85-.04,.47,0,.96,0,2.25,4.01-1.74,7.98-2.74,11.11-4.94,25.25-17.78,44.05-40.6,53.89-70.25,1.31-3.93,4.11-5.65,7.24-4.66,3.32,1.05,4.73,4.19,3.32,8.23-2.05,5.85-4.33,11.61-6.58,17.59,12.03,3.68,17.66,12.03,16.99,24.54,4.01-.25,7.84-.89,11.61-.64,13.45,.89,24.1,11.39,25.67,24.96,1.57,13.51-5.96,25.28-19.07,29.39-33.98,10.66-67.99,21.19-101.97,31.85-13.66,4.28-27.12,9.24-40.91,13.01-16.67,4.55-33.27,3.55-49.53-2.81-12.87-5.03-25.93-9.57-38.88-14.42-8.41-3.15-17.05-4.61-26.02-4.08-13.69,.81-27.37,1.58-41.6,2.39,0,2.44,.04,4.75,0,7.07-.18,9.3-6.67,16.65-15.98,17.02-10.96,.44-21.96,.39-32.92,.04-8.74-.28-13.6-5.86-16.22-13.73v-59.88c1.68-2.8,3.94-4.72,7.36-3.55,3.16,1.09,3.9,3.79,3.89,6.93-.05,17.19-.04,34.39-.02,51.58,0,5.47,1.97,7.53,7.36,7.57,9.34,.06,18.69,.07,28.03,0,5.2-.04,7.25-2.13,7.26-7.29,.02-29.16,.02-58.31,0-87.47,0-4.97-2.08-7.18-6.98-7.22-9.59-.09-19.19-.09-28.78,0-4.71,.05-6.8,2.27-6.89,6.94-.04,1.99-.07,3.99,0,5.98,.12,3.23-.5,6.06-4.03,7.12-3.56,1.07-5.61-1-7.22-3.8v-14.22Zm65.25,75.37c2.35,0,4.33,.1,6.3-.02,11.45-.65,22.9-1.35,34.35-2.05,10.74-.65,21.08,1.09,31.14,4.9,11.29,4.28,22.91,7.78,33.94,12.63,20.08,8.81,39.93,7.49,60.12,.77,23.85-7.95,47.79-15.64,71.74-23.26,18.98-6.04,38.09-11.66,57.04-17.76,9.82-3.17,14.35-12.47,11.16-21.64-3.15-9.04-12.67-13.32-22.26-10.14-34.5,11.44-69,22.89-103.56,34.16-3.47,1.13-7.38,1.71-11,1.42-12.05-.95-24.05-2.42-36.08-3.69-4.59-.49-9.19-.87-13.75-1.52-3.45-.49-5.64-3.19-5.34-6.12,.32-3.09,2.79-5.07,6.33-4.97,1.74,.05,3.48,.28,5.21,.47,14.87,1.58,29.73,3.25,44.61,4.73,6.97,.69,12.18-3.57,13.2-10.38,1.04-6.97-2.59-12.57-9.36-13.9-29.57-5.83-59.16-11.53-88.72-17.39-6.73-1.34-12.9-.25-18.61,3.36-4.21,2.66-8.29,5.53-12.33,8.45-11.53,8.34-24.28,11.93-38.43,9.91-5.24-.75-10.42-1.89-15.74-2.88v54.91Zm235.4-52.55c8.77-3.03,18.08-6.12,27.29-9.46,4.81-1.75,7.41-6.64,6.5-11.33-.92-4.72-5.07-8.31-9.74-8.18-1.09,.03-2.55,.52-3.16,1.32-7.11,9.25-14.09,18.61-20.89,27.65Z"/>
</svg>