<?xml version="1.0" encoding="utf-8"?>
<!-- Generator: Adobe Illustrator 27.0.0, SVG Export Plug-In . SVG Version: 6.00 Build 0)  -->
<svg version="1.1" id="Livello_1" xmlns="http://www.w3.org/2000/svg" xmlns:xlink="http://www.w3.org/1999/xlink" x="0px" y="0px"
	 viewBox="0 0 331.9 371.3" style="enable-background:new 0 0 331.9 371.3;" xml:space="preserve">
<style type="text/css">
	.st0{fill:#FFFFFF;}
</style>
<g>
	<path class="st0" d="M28.9,269.9c-2.2,0-4.1,1.9-4.1,4.1c-0.1,2.2,1.5,4,3.8,4.2l0.3,0c2.2,0,4-1.7,4.2-3.9c0.1-1.1-0.3-2.2-1.1-3
		C31.1,270.5,30,270,28.9,269.9z"/>
	<path class="st0" d="M192.6,107.2c1.3,1.3,2.5,2,3.5,2c1,0,2.1-0.6,3.5-1.8c11.7-10.6,23.9-21.6,36-32.7c2.3-2.1,2.7-4.5,1.1-6.4
		c-0.8-1-1.8-1.4-2.9-1.4c-1.2,0-2.5,0.6-3.7,1.7c-2.4,2.1-4.8,4.3-7,6.3l-1,0.9c-0.9,0.9-1.9,1.7-2.8,2.6
		c-3.2,2.9-12.1,11-17.5,15.9l-2.6,2.3c-1.7,1.6-1.7,1.6-1.7,1.6c-0.2,0.2-0.4,0.3-0.6,0.4c-0.7,0.3-1.5,0.1-2-0.4
		c-0.9-1-1.9-1.9-2.8-2.9l-0.3-0.3c-2.5-2.7-4.9-5.2-7.5-7.7c-2.1-2.1-4.6-2.4-6.4-0.6c-1.8,1.8-1.7,4.2,0.5,6.4
		C182.9,97.7,187.7,102.5,192.6,107.2z"/>
	<path class="st0" d="M128.7,116.7c-0.1,0.6-0.2,1.2-0.3,2c0,0.3-0.1,0.5-0.1,0.8c-1.4,10.4,3.4,19.2,13,23.6
		c1.5,0.7,3.1,1.4,4.7,2.1l0.5,0.2c0.1,0.1,0.3,0.2,0.4,0.3c0.6,0.5,0.9,1.4,0.6,2.1c-0.1,0.3-0.2,0.5-0.3,0.7
		c-0.2,0.5-0.3,0.9-0.5,1.3c-1.6,3.5-3.2,6.9-4.9,10.4l-0.3,0.7c-5.1,11-10.5,22.4-15.5,33.7c-0.7,1.5-0.6,4.3,0.2,5.4
		c0.7,0.7,3.1,1.4,4.7,1.2c6.5-0.8,12.9-2,19.2-3.2l1.3-0.3c0.6-0.1,1.1-0.2,1.6-0.2c2.9,0,4.1,2.2,4.6,3c1.8,3.2,3.6,6.4,5.4,9.4
		l0.2,0.4c1.4,2.4,2.8,4.8,4.2,7.3c1.5,2.7,2.6,3.9,4.7,3.9c0.1,0,0.3,0,0.4,0c2.1-0.2,3.1-1.5,4.4-4.4l1-2.3
		c6.2-13.4,12.6-27.2,19.1-40.7c1-2.1,3.1-3.5,4.8-4.3c1.6-0.7,3.4-1,5.2-1c3.3,0,6.4,1.1,9.3,2.2l1.2,0.4c2.2,0.7,4.3,2.6,5.2,4.6
		c4.9,11,9.7,22.1,14.3,32.9c1.2,2.9,2.5,3.6,4.1,3.7c0.1,0,0.3,0,0.4,0c1.2,0,2.6-0.4,4.2-3c1.2-2,2.5-4.1,3.8-6.1l0.1-0.1
		c2.2-3.6,4.5-7.2,6.7-10.9c1.3-2.2,2.9-3.3,5.1-3.3c0.6,0,1.3,0.1,2.1,0.3c5.3,1.2,10.6,2.3,15.8,3.4l3.1,0.6
		c0.8,0.2,1.8,0.3,2.7,0.3c1.4,0,2.3-0.4,3.1-1.4c1.3-1.6,1.3-3.1,0-6.2c-3-7-6-14-9-21l-8.2-19c-0.4-0.8,0-1.8,0.7-2.3
		c12.5-7.7,15.9-13.6,14-24.3c-2.1-11.6-0.2-21.6,5.9-31.5c2.8-4.6,3.3-9.9,1.6-15.9c-1.4-4.6-4.2-8.6-8.5-12
		c-7.8-6.1-12.1-13.4-13-22.6c-0.2-1.7-0.7-3.4-1.3-5.2l-0.1-0.2c-2.6-8.2-10.1-14.1-18.6-14.7c-3.7-0.3-6.5-0.4-8.8-0.6
		c-8.9-0.5-9.2-0.6-17.2-6.5c-1.5-1.2-3.5-2.6-5.9-4.3c-3.9-2.8-8.3-4.3-12.7-4.3c-4.5,0-9,1.5-13,4.4c-1.1,0.8-2.2,1.6-3.4,2.5
		c-2,1.6-4.1,3.2-6.4,4.6c-2.6,1.5-5.6,2.7-8.8,3.3c-2.5,0.5-5.1,0.6-7.6,0.7c-0.9,0-1.8,0.1-2.7,0.1c-12.8,0.7-19.8,6.7-22.2,18.9
		c-2,10.3-6.3,17.9-13.5,24.2c-11,9.5-12.4,17.8-5.4,30.6C129.3,100.6,130.7,108.5,128.7,116.7z M232.2,174.6
		c0.3-0.5,0.7-0.8,1.3-0.9c8.3-1.4,13.2-6.9,17.9-14.6c1.5-2.5,3.4-4.9,5.4-7.4c0.9-1.2,1.9-2.4,2.9-3.7c0.3-0.5,0.9-0.7,1.5-0.7
		c0.1,0,0.2,0,0.2,0c0.6,0.1,1.2,0.5,1.5,1.1l14,32.4c0.3,0.6,0.2,1.3-0.3,1.9c-0.4,0.5-1.1,0.8-1.8,0.6l-4.1-0.8
		c-3.6-0.7-6.9-1.4-10.3-2.1c-1.8-0.4-3-0.5-3.8-0.5c-1.7,0-2.5,0.5-4.7,4.1l-7.9,12.6c-0.4,0.6-1,0.9-1.7,0.9
		c-0.7-0.1-1.3-0.5-1.5-1.1c-3-6.9-5.7-13.3-8.7-20.1C231.9,175.7,231.9,175.1,232.2,174.6z M207.2,9.9c3.1,0,6.3,1.5,9.9,4.6
		c8.8,7.6,18.9,11.4,30.8,11.4l0.3,0c9.7,0,13.7,3.4,15.3,13.2c1.9,11.4,7,20.4,15.8,27.6c7.9,6.4,8.8,11.4,3.7,20.6
		c-4.3,7.7-8.4,17.1-5.9,27.9c0.4,1.8,0.6,3.7,0.8,5.8c0.5,7.5-2.1,11.8-9.1,14.9l-0.8,0.4c-1,0.5-2,0.9-3.2,1.3
		c-9.3,3.1-16.1,8.8-20.7,17.4c-0.9,1.6-1.9,3.1-3,4.6c-3.8,5.3-8.8,7.1-15,5.5c-2.8-0.7-5.9-1.7-9.4-2.8c-3.2-1.1-6.4-1.6-9.5-1.6
		c-3.1,0-6.3,0.5-9.5,1.6c-3.3,1.1-6.6,2.1-9.8,2.9c-5.8,1.5-10.9-0.4-14.4-5.3c-1.9-2.6-3.8-5.5-5.8-8.8
		c-3.4-5.4-7.9-9.2-13.7-11.5c-3.3-1.3-6.5-2.7-9.7-4.2c-5.2-2.4-8-6.8-7.9-12.7c0-0.1,0-0.1,0-0.2c0.1-1,0.2-1.9,0.3-2.9
		c0.2-2,0.4-4.1,0.8-6.1c1.3-7.5,0.3-14.2-3.2-20.5c-1.6-2.9-3.1-5.8-4.4-8.8c-2.7-5.9-1.6-11.6,2.9-15.2
		c10.9-8.5,17.1-19.2,18.9-32.8c0.8-5.9,5.6-9.8,12.4-10.3c0.2,0,0.4,0,0.8-0.1c0.8-0.1,1.6-0.1,2.4-0.1c0.7,0,1.3,0,2,0
		c10.1,0,19.3-3.7,28.1-11.3C200.9,11.3,204.1,9.9,207.2,9.9z M156.4,150.8c0.7-0.1,1.3,0.2,1.7,0.8c1.1,1.6,2.2,3.3,3.3,5
		c6,9.3,11.1,17.4,23.5,17.4l0.2,0c0.6,0,1.2,0.3,1.5,0.8c0.3,0.5,0.4,1.2,0.1,1.8l-13.3,28.7c-0.3,0.6-0.9,1-1.6,1.1
		c-0.7,0-1.3-0.3-1.7-0.9l-2.9-5c-1.7-2.9-3.3-5.7-4.9-8.4c-1.9-3.2-2.7-3.7-4.4-3.7c-0.7,0-1.6,0.1-2.8,0.3c-3,0.5-6,1.1-9,1.6
		l-0.6,0.1c-1.8,0.3-3.7,0.6-5.7,1c-0.7,0.1-1.4-0.2-1.8-0.7c-0.4-0.5-0.5-1.3-0.2-1.9l17.1-36.9
		C155.1,151.2,155.7,150.8,156.4,150.8z"/>
	<path class="st0" d="M207.2,141.1c14.1,0,27.4-5.6,37.5-15.6c10-10,15.5-23.3,15.5-37.4l0-0.2c-0.1-29.2-23.9-53-53.1-53H207
		c-14.1,0-27.3,5.6-37.3,15.6c-10,10.1-15.5,23.5-15.5,37.8C154.3,117.4,178,141.1,207.2,141.1z M162.5,88.3
		c-0.1-12,4.5-23.4,13-31.9c8.4-8.5,19.6-13.2,31.6-13.2l0.1,0c24.5,0,44.6,20,44.7,44.6c0.1,24.6-19.8,44.8-44.4,45l-0.3,0
		C182.7,132.7,162.7,112.8,162.5,88.3z"/>
	<path class="st0" d="M329.2,247.5c-2.6-10-11.1-16.2-22.2-16.2c-2,0-4,0.2-6.1,0.6c-7.3,1.4-14.6,4.3-23.5,9.6l-12.6,7.4
		c-14.1,8.2-30.1,17.6-45.5,26.5c-1.7,1-3.6,1.8-5.5,2.7l-0.1,0c-0.9,0.4-1.9,0.9-2.9,1.4c-0.6,0.3-1.2,0.3-1.7,0
		c-0.8-0.4-1.2-1.4-0.9-2.3c0.2-0.6,0.4-1.1,0.5-1.5l0.2-0.5c0.4-1.1,0.7-1.8,0.9-2.5c1.7-5.7,0.9-11.9-2.3-17.2
		c-3-5-7.6-8.4-13-9.5c-19-3.9-37-10.3-53.8-16.5c-5.9-2.2-12.3-4.2-18.8-4.2c-2.8,0-5.5,0.4-8.1,1.1c-6.5,1.9-12.3,4.2-17.2,6.9
		c-10.3,5.7-20.7,11.7-30.7,17.6c-4.2,2.5-8.4,4.9-12.6,7.3c-0.9,0.5-1.8,1-2.6,1.4l-1.2,0.6c-0.8,0.5-2,0.1-2.5-0.7
		c-0.4-0.7-0.8-1.4-1.2-2.1l-0.2-0.3c-0.8-1.3-1.5-2.6-2.2-3.8c-2.7-4.5-6.7-7-11.3-7c-2.4,0-4.8,0.7-7.2,2
		c-4.9,2.7-10,5.5-15.6,8.8c-7.6,4.4-9.4,11.3-5.2,18.9c2.3,4.2,4.8,8.5,7.1,12.6l0.5,0.8c1.1,1.9,2.2,3.9,3.3,5.8l10.7,18.9
		c8.3,14.8,17.8,31.4,27.1,47.8c2.8,4.9,6.7,7.5,11.4,7.5c2.4,0,4.9-0.7,7.5-2.1c5.4-3,11-6,16.4-9.4c6.1-3.8,8-10.7,4.7-17.2
		c-1-1.9-2-3.7-3.1-5.7c-0.5-0.9-1-1.9-1.6-2.8c-0.1-0.3-0.2-0.6-0.2-0.9c0-0.6,0.3-1.1,0.7-1.4c3.2-2.5,7.3-5.1,12.6-5.1
		c1.8,0,3.7,0.3,5.7,0.9c14.8,4.4,29.9,8.3,44.6,12.2l0.3,0.1c7.3,1.9,15.7,4.1,23.6,6.3c4.4,1.2,8.8,1.8,13,1.8
		c8.6,0,16.6-2.4,24.6-7.3c16-9.9,32-19.8,48.1-29.6l2.4-1.5c1.1-0.7,1.5-2.1,0.8-3.2l-1.8-3.1c-0.3-0.6-0.9-1-1.5-1.1
		c-0.6-0.2-1.3-0.1-1.8,0.3l-50.1,30.9c-6.8,4.2-13.7,6.3-21,6.3c-3.7,0-7.6-0.6-11.6-1.6c-12.8-3.5-25.9-7-38.6-10.4l-1.3-0.3
		c-10-2.7-22.4-6-34-9.2c-4-1.1-6.7-0.8-9.4,1.2c-1.8,1.3-3.7,2.3-5.8,3.4c-0.9,0.5-1.7,0.9-2.6,1.5c-0.8,0.5-1.8,0.4-2.3-0.2
		c-0.1-0.1-0.2-0.3-0.3-0.4l-29-51.2c-0.5-0.8-0.2-1.9,0.6-2.4c0.3-0.2,0.5-0.3,0.8-0.6c0.6-0.4,1.1-0.7,1.6-1.1
		c3.1-1.8,6.3-3.6,9.4-5.5l1.6-0.9c10.6-6.1,21.5-12.5,32.4-18.7c3.5-2,7.6-3.9,12.5-5.7c3.2-1.2,6.6-1.8,10-1.8
		c3.6,0,7.3,0.6,11.3,2c16.2,5.4,32.6,10.6,48.4,15.6l3.1,1c1.3,0.4,2.7,0.7,4.1,1c1.3,0.2,2.6,0.5,3.8,0.9c6.6,1.9,10.6,8,9.5,14.6
		c-1,6.1-5.6,10.1-11.7,10.1c-0.5,0-1.1,0-1.6-0.1c-5.3-0.5-10.5-1.9-15.5-3.2l-1.2-0.3c-4.8-1.2-9.6-2.6-14.2-3.9l-0.1,0
		c-3-0.9-6.5-1.8-9.8-2.7c-2.7-0.7-4.9,0.3-5.6,2.5c-0.4,1.2-0.3,2.3,0.3,3.2c0.6,1,1.6,1.8,3,2.1l7.7,2c12.5,3.2,25.4,6.6,38.3,9.4
		c11,2.5,21.8,0.5,32.4-5.8c17.1-10.1,37.3-22,57.5-33.5c4.8-2.7,10-4.7,15.1-6.7c1.2-0.5,2.4-0.9,3.6-1.4c2.1-0.8,4.4-0.9,6.4-0.9
		l0.1,0c7.3-0.2,12.5,3.2,14.3,9.3c2,7.2-0.4,13.4-6.5,17.2c-8.9,5.5-17.8,11-26.8,16.5L270,293.7c-1.1,0.7-1.5,2.1-0.8,3.2l1.8,3.1
		c0.3,0.6,0.9,1,1.5,1.1c0.6,0.2,1.3,0.1,1.8-0.3c14.9-9.2,29.8-18.4,44.7-27.6C327.9,267.8,331.9,257.7,329.2,247.5z M64.1,361.2
		c-2.5,0-3.8-2.3-4.9-4.3c-5-8.8-9.9-17.5-14.9-26.3l-15.9-28.2c-5.5-9.7-11-19.4-16.5-29.1c-2.8-5-2.3-6.8,2.6-9.6
		c1.7-0.9,3.3-1.9,5-2.8l0.3-0.2c2.6-1.5,5.6-3.1,8.4-4.8c1.3-0.8,2.4-1.1,3.5-1.1c1.9,0,3.6,1.1,4.8,3.4
		c9.8,17.3,19.6,34.6,29.4,52l1.9,3.3c5.6,10,11.3,20,16.9,29.9c0.3,0.5,0.5,1.1,0.9,1.8c0.2,0.4,0.3,0.8,0.5,1.2
		c0.3,0.7,0.2,1.5-0.4,2.1c-0.2,0.2-0.5,0.5-0.7,0.8l-0.1,0.1c-0.7,0.7-1.5,1.7-2.5,2.3c-3.9,2.3-7.8,4.5-11.5,6.6l-2.1,1.2
		C67,360.4,65.5,361.2,64.1,361.2z"/>
</g>
</svg>
